<svg width="34" height="34" viewBox="0 0 34 34" fill="none" xmlns="http://www.w3.org/2000/svg">
<path d="M24.3055 26.3889C23.4233 26.3889 22.5741 26.0538 21.9295 25.4515C21.2849 24.8492 20.8931 24.0246 20.8332 23.1445V22.9167V20.8334L20.8416 20.6723C20.8817 20.3347 21.0443 20.0236 21.2985 19.7978C21.5526 19.5721 21.8808 19.4474 22.2207 19.4474C22.5607 19.4474 22.8888 19.5721 23.143 19.7978C23.3972 20.0236 23.5598 20.3347 23.5999 20.6723L23.611 20.8334V22.9167L23.6221 23.0417C23.6511 23.2018 23.7354 23.3467 23.8603 23.451C23.9852 23.5553 24.1427 23.6124 24.3055 23.6124C24.4682 23.6124 24.6257 23.5553 24.7506 23.451C24.8755 23.3467 24.9598 23.2018 24.9888 23.0417L24.9999 22.9167V10.4167C25.0002 10.2432 24.9356 10.0758 24.8186 9.94757C24.7017 9.81933 24.541 9.73951 24.3682 9.72383C24.1954 9.70815 24.0229 9.75774 23.8849 9.86285C23.7468 9.96795 23.653 10.121 23.6221 10.2917L23.611 10.4167V16.6667C23.6109 17.0071 23.4858 17.3356 23.2595 17.5899C23.0332 17.8441 22.7213 18.0064 22.3832 18.0459L22.2221 18.0556H12.4999V22.9167C12.5149 23.3727 12.4399 23.8271 12.2792 24.2541C12.1185 24.6811 11.8753 25.0723 11.5634 25.4053C11.2516 25.7383 10.8772 26.0066 10.4617 26.1949C10.0461 26.3832 9.59755 26.4879 9.14157 26.5028C8.68559 26.5178 8.23113 26.4428 7.80414 26.2821C7.37715 26.1214 6.98598 25.8782 6.65298 25.5664C5.98046 24.9366 5.58567 24.0654 5.55546 23.1445V22.9167V22.1528C5.32682 22.1987 5.09421 22.2219 4.86102 22.2223C3.97946 22.2224 3.13086 21.8872 2.48734 21.2847C1.84382 20.6822 1.45357 19.8575 1.39574 18.9778L1.38879 18.75V14.5834C1.38869 14.0684 1.50312 13.5599 1.7238 13.0947C1.94448 12.6294 2.26588 12.219 2.66472 11.8933C3.06356 11.5676 3.52985 11.3347 4.02982 11.2114C4.52979 11.0881 5.05092 11.0776 5.55546 11.1806V10.4167L5.56241 10.1875C5.61822 9.30641 6.00759 8.47964 6.65132 7.87539C7.29505 7.27115 8.14479 6.93481 9.02768 6.93481C9.91058 6.93481 10.7603 7.27115 11.404 7.87539C12.0478 8.47964 12.4371 9.30641 12.493 10.1875L12.4999 10.4167V12.5L12.4902 12.6625C12.45 13.0001 12.2875 13.3112 12.0333 13.537C11.7791 13.7627 11.451 13.8874 11.111 13.8874C10.7711 13.8874 10.4429 13.7627 10.1887 13.537C9.93456 13.3112 9.772 13.0001 9.73185 12.6625L9.72213 12.5V10.4167L9.71102 10.2917C9.68202 10.1316 9.59773 9.98675 9.47284 9.88244C9.34795 9.77813 9.1904 9.72099 9.02768 9.72099C8.86496 9.72099 8.70741 9.77813 8.58252 9.88244C8.45764 9.98675 8.37334 10.1316 8.34435 10.2917L8.33324 10.4167V22.9167C8.33292 23.0902 8.39758 23.2576 8.5145 23.3859C8.63142 23.5141 8.79211 23.5939 8.96493 23.6096C9.13776 23.6253 9.3102 23.5757 9.44828 23.4706C9.58637 23.3655 9.6801 23.2125 9.71102 23.0417L9.72213 22.9167V16.6667C9.72213 16.2984 9.86846 15.9451 10.1289 15.6846C10.3894 15.4242 10.7427 15.2778 11.111 15.2778H20.8332V10.4167C20.8361 9.51758 21.1876 8.65461 21.8138 8.00941C22.4401 7.3642 23.2921 6.98707 24.1908 6.95738C25.0894 6.92769 25.9646 7.24775 26.632 7.85022C27.2994 8.45268 27.7072 9.29056 27.7693 10.1875L27.7777 10.4167V11.1806C28.0062 11.134 28.2389 11.1107 28.4721 11.1112C29.393 11.1112 30.2762 11.477 30.9274 12.1281C31.5785 12.7793 31.9443 13.6625 31.9443 14.5834V18.75C31.9443 19.6709 31.5785 20.5541 30.9274 21.2053C30.2762 21.8564 29.393 22.2223 28.4721 22.2223C28.2389 22.2221 28.0063 22.1989 27.7777 22.1528V22.9167L27.7707 23.1445C27.7129 24.0241 27.3227 24.8489 26.6791 25.4514C26.0356 26.0539 25.187 26.3891 24.3055 26.3889V26.3889ZM28.4721 13.8889C28.2879 13.8889 28.1113 13.9621 27.9811 14.0923C27.8508 14.2226 27.7777 14.3992 27.7777 14.5834V18.75C27.7777 18.9342 27.8508 19.1109 27.9811 19.2411C28.1113 19.3713 28.2879 19.4445 28.4721 19.4445C28.6563 19.4445 28.8329 19.3713 28.9632 19.2411C29.0934 19.1109 29.1666 18.9342 29.1666 18.75V14.5834C29.1666 14.3992 29.0934 14.2226 28.9632 14.0923C28.8329 13.9621 28.6563 13.8889 28.4721 13.8889ZM4.86102 13.8889C4.69848 13.8889 4.54108 13.9458 4.41621 14.0499C4.29135 14.1539 4.20694 14.2985 4.17768 14.4584L4.16657 14.5834V18.75C4.16625 18.9236 4.23092 19.0909 4.34783 19.2192C4.46475 19.3474 4.62544 19.4272 4.79827 19.4429C4.9711 19.4586 5.14353 19.409 5.28162 19.3039C5.4197 19.1988 5.51343 19.0458 5.54435 18.875L5.55546 18.75V14.5834C5.55546 14.3992 5.4823 14.2226 5.35206 14.0923C5.22183 13.9621 5.04519 13.8889 4.86102 13.8889Z" fill="white"/>
</svg>
