<svg width="34" height="34" viewBox="0 0 34 34" fill="none" xmlns="http://www.w3.org/2000/svg">
<path d="M11.7778 30.5555C11.541 30.5556 11.3081 30.4952 11.1013 30.38C10.8944 30.2647 10.7205 30.0986 10.5959 29.8972C10.4714 29.6958 10.4004 29.466 10.3897 29.2294C10.3789 28.9929 10.4289 28.7576 10.5347 28.5458L15.7819 18.0555H3.44444C3.08842 18.0579 2.74505 17.9235 2.48526 17.6801C2.22547 17.4366 2.06908 17.1027 2.04841 16.7473C2.02773 16.3919 2.14434 16.0421 2.37415 15.7701C2.60396 15.4982 2.92942 15.3249 3.28333 15.286L3.44444 15.2777H31.2222C31.5784 15.2749 31.922 15.409 32.1821 15.6524C32.4422 15.8957 32.5988 16.2296 32.6197 16.5852C32.6406 16.9408 32.524 17.2907 32.2942 17.5628C32.0644 17.8349 31.7388 18.0083 31.3847 18.0472L31.2222 18.0555H18.8889L24.1389 28.5458C24.245 28.7581 24.2949 28.9941 24.2839 29.2312C24.2728 29.4683 24.2012 29.6986 24.0759 29.9002C23.9505 30.1017 23.7756 30.2678 23.5678 30.3825C23.36 30.4972 23.1262 30.5568 22.8889 30.5555H11.7778ZM14.0236 27.7777H20.6403L17.3333 21.161L14.0236 27.7777ZM20.1111 8.33327C20.1111 7.23448 20.4369 6.16037 21.0474 5.24677C21.6578 4.33316 22.5255 3.62109 23.5406 3.2006C24.5558 2.78012 25.6728 2.6701 26.7505 2.88446C27.8282 3.09882 28.8181 3.62794 29.595 4.4049C30.372 5.18186 30.9011 6.17176 31.1155 7.24943C31.3298 8.32711 31.2198 9.44414 30.7993 10.4593C30.3788 11.4744 29.6668 12.3421 28.7532 12.9525C27.8396 13.563 26.7654 13.8888 25.6667 13.8888C24.1932 13.8888 22.7802 13.3035 21.7383 12.2616C20.6964 11.2198 20.1111 9.80669 20.1111 8.33327V8.33327ZM22.8889 8.33327C22.8889 8.88266 23.0518 9.41972 23.357 9.87652C23.6623 10.3333 24.0961 10.6894 24.6037 10.8996C25.1112 11.1098 25.6697 11.1649 26.2086 11.0577C26.7474 10.9505 27.2424 10.6859 27.6308 10.2975C28.0193 9.90897 28.2839 9.41402 28.3911 8.87519C28.4982 8.33635 28.4432 7.77783 28.233 7.27026C28.0228 6.76269 27.6667 6.32886 27.2099 6.02363C26.7531 5.7184 26.2161 5.55549 25.6667 5.55549C24.93 5.55549 24.2234 5.84815 23.7025 6.36908C23.1815 6.89002 22.8889 7.59656 22.8889 8.33327V8.33327ZM6.22222 13.8888C5.48551 13.8888 4.77897 13.5962 4.25803 13.0752C3.7371 12.5543 3.44444 11.8478 3.44444 11.111V5.55549C3.44444 4.81878 3.7371 4.11224 4.25803 3.5913C4.77897 3.07037 5.48551 2.77771 6.22222 2.77771H11.7778C12.5145 2.77771 13.221 3.07037 13.742 3.5913C14.2629 4.11224 14.5556 4.81878 14.5556 5.55549V11.111C14.5556 11.8478 14.2629 12.5543 13.742 13.0752C13.221 13.5962 12.5145 13.8888 11.7778 13.8888H6.22222ZM6.22222 11.111H11.7778V5.55549H6.22222V11.111Z" fill="white"/>
</svg>
