<svg width="34" height="34" viewBox="0 0 34 34" fill="none" xmlns="http://www.w3.org/2000/svg">
<path fill-rule="evenodd" clip-rule="evenodd" d="M30.7301 0C31.449 0 32.0315 0.583203 32.0315 1.30208C32.0315 3.09546 32.2097 4.02852 32.4597 4.92927L32.8161 6.14713C32.9053 6.46 32.9972 6.80277 33.0857 7.18691C33.6354 9.57194 33.2647 12.066 32.0421 14.2099C31.115 15.8353 29.7585 17.1439 28.1191 17.9945C27.9863 18.0634 27.8909 18.187 27.8577 18.3255L27.846 18.4153L27.8406 18.6066C27.727 20.4179 26.6766 23.3543 25.1681 25.0721C25.13 25.1242 25.0868 25.1753 25.039 25.2237L24.8371 25.4216C23.1286 27.0558 20.9187 27.9939 18.5833 28.071L18.268 28.0758L18.1492 28.0882C17.9964 28.1206 17.8647 28.2153 17.7906 28.3512C16.4939 30.7296 14.2699 32.4299 11.6474 33.0637L11.2598 33.149L10.7954 33.2296C10.4851 33.2755 10.1729 33.3064 9.86087 33.3218L9.39324 33.3334H2.86485C2.14571 33.3334 1.56277 32.7505 1.56277 32.0313C1.56277 30.5603 1.27839 29.462 0.954414 28.4493L0.757235 27.8496C0.53842 27.1933 0.312248 26.5146 0.170842 25.7852C-0.812622 20.7123 2.55522 15.757 7.67846 14.7391C8.3588 14.604 9.05242 14.5429 9.74024 14.5571C9.9422 14.5572 10.1199 14.4453 10.216 14.2632C10.6605 13.4213 11.227 12.6491 11.8998 11.968C12.6348 11.224 13.4739 10.6095 14.394 10.1415C14.5621 10.0561 14.6705 9.88066 14.6703 9.69479C14.6677 7.99948 15.1126 6.3209 15.9568 4.84069C17.1818 2.69271 19.1358 1.11706 21.459 0.404036C22.5092 0.0816884 24.2571 0.0153831 26.3104 0.00275424L30.7301 0ZM29.4612 2.60396L26.321 2.60656L25.3277 2.61866C24.0887 2.64316 22.8215 2.71004 22.223 2.89374C20.5361 3.41152 19.1141 4.56119 18.2188 6.13098C17.668 7.09695 17.3487 8.17697 17.2858 9.27752L17.2744 9.69101C17.276 10.7882 16.7088 11.7866 15.7793 12.3491L15.5746 12.4629C14.9039 12.8041 14.2908 13.2534 13.7525 13.7983C13.3578 14.1978 13.0133 14.6397 12.7248 15.1158L12.519 15.4792C11.9955 16.4704 11.0147 17.0974 9.92175 17.1569L9.68595 17.1609C9.18666 17.1503 8.68139 17.195 8.18575 17.2934C4.46466 18.0327 2.01596 21.6198 2.72742 25.2896C2.80926 25.7116 2.93661 26.1379 3.08007 26.5793L3.46152 27.7391C3.69464 28.4737 3.91702 29.2819 4.04774 30.2383L4.10509 30.7293H9.39324C9.73084 30.7293 10.0708 30.7042 10.408 30.6545L10.7525 30.5948C12.6635 30.2151 14.3101 29.066 15.322 27.4193L15.5042 27.1047C16.0169 26.1644 16.9731 25.5568 18.0376 25.48L18.2672 25.4717L18.4973 25.4682C20.1397 25.4141 21.6997 24.7686 22.9282 23.6423L23.1863 23.3937C23.2297 23.3498 23.2754 23.3096 23.3231 23.2731C24.3297 22.0689 25.1278 19.8777 25.2616 18.6307C25.246 18.5658 25.2404 18.4952 25.2406 18.4233C25.2442 17.3455 25.8048 16.3589 26.7187 15.7968L26.9198 15.6829C28.113 15.064 29.102 14.1085 29.7799 12.9198C30.6775 11.3458 30.9503 9.51757 30.548 7.7718C30.4835 7.49208 30.4168 7.23663 30.3495 6.99521L29.9987 5.79744L29.8569 5.27733C29.675 4.56415 29.5255 3.75231 29.4612 2.60396ZM11.9775 20.3512C12.9359 20.995 13.5831 21.9661 13.799 23.0847C14.2382 25.3608 12.7517 27.5934 10.4551 28.1824L10.206 28.2391L9.90247 28.2894C9.69759 28.3166 9.49239 28.3301 9.28811 28.3301C8.38803 28.3301 7.51913 28.0669 6.7729 27.5655C5.81455 26.9217 5.16731 25.9505 4.95142 24.8319C4.51226 22.5559 5.99876 20.3233 8.2913 19.735L8.53997 19.6783L8.84282 19.628C9.953 19.4797 11.056 19.732 11.9775 20.3512ZM9.45692 22.3305C9.33146 22.3305 9.20431 22.3431 9.0769 22.3685C8.1174 22.56 7.47495 23.4321 7.64481 24.3124C7.72117 24.7083 7.95483 25.0551 8.30262 25.2888C8.6409 25.5161 9.04701 25.6163 9.46428 25.5787L9.67358 25.5484L9.84965 25.5047C10.7102 25.2479 11.2649 24.4299 11.1057 23.6046C11.0293 23.2086 10.7957 22.8618 10.4479 22.6282C10.1559 22.432 9.81349 22.3305 9.45692 22.3305ZM18.9045 14.1869C19.993 14.2244 20.9981 14.6541 21.7594 15.4154C23.3886 17.0447 23.3896 19.7133 21.8075 21.4887L21.6179 21.6895L21.3851 21.9071C20.6559 22.5446 19.7632 22.935 18.8201 23.0319L18.5041 23.0532L18.3558 23.0556C17.2095 23.0556 16.1469 22.6207 15.3504 21.8243C13.6586 20.1323 13.7225 17.3195 15.4885 15.5534C16.2614 14.7804 17.2562 14.3078 18.3152 14.2052L18.6055 14.1864L18.9045 14.1869ZM18.7509 16.9271L18.6949 16.928C18.2271 16.9433 17.7772 17.1439 17.4281 17.493C16.7308 18.1905 16.6688 19.2633 17.2901 19.8846C17.5796 20.1742 17.9799 20.326 18.4149 20.3117C18.8159 20.2985 19.2037 20.1492 19.5261 19.887L19.6817 19.7466L19.8127 19.6023C20.3843 18.9081 20.3996 17.9349 19.8197 17.355C19.5427 17.078 19.1649 16.9271 18.7509 16.9271ZM26.4114 5.56259C28.4757 6.75467 29.1396 9.47817 27.8957 11.6331C27.3017 12.662 26.3616 13.4149 25.2487 13.7524C24.831 13.879 24.4051 13.9428 23.9817 13.9428C23.2491 13.9428 22.5358 13.752 21.8965 13.3828C19.8321 12.1907 19.1682 9.46724 20.4122 7.31232C20.9566 6.36913 21.792 5.6579 22.7846 5.28599L23.0591 5.19305L23.3465 5.11613C24.4026 4.87054 25.4812 5.02544 26.4114 5.56259ZM24.3205 7.7476C24.167 7.7476 24.0105 7.77097 23.8551 7.81811C23.4114 7.95268 23.0324 8.2601 22.7878 8.6838C22.2992 9.53002 22.5147 10.5724 23.2681 11.0075C23.6189 11.2101 24.0397 11.2527 24.4526 11.1275C24.8962 10.9929 25.2753 10.6855 25.5199 10.2618C26.0084 9.41557 25.7929 8.37319 25.0395 7.93809C24.8207 7.81179 24.5748 7.7476 24.3205 7.7476Z" fill="white"/>
</svg>
