<svg width="32" height="32" viewBox="0 0 32 32" fill="none" xmlns="http://www.w3.org/2000/svg">
<g clip-path="url(#clip0_3323_730)">
<path d="M31.4672 4.20057V30.9339C31.4672 31.2284 31.2284 31.4672 30.9339 31.4672H19.4005C19.106 31.4672 18.8672 31.2284 18.8672 30.9339V4.20057C18.8672 3.90604 19.106 3.66724 19.4005 3.66724H30.9339C31.2284 3.66724 31.4672 3.90604 31.4672 4.20057Z" fill="#FFE773"/>
<path d="M31.4672 4.20057V4.46724C31.4672 4.76177 31.2284 5.00057 30.9339 5.00057H21.4005C21.106 5.00057 20.8672 5.23937 20.8672 5.5339V31.4672H19.4005C19.106 31.4672 18.8672 31.2284 18.8672 30.9339V4.20057C18.8672 3.90604 19.106 3.66724 19.4005 3.66724H30.9339C31.2284 3.66724 31.4672 3.90604 31.4672 4.20057Z" fill="#FFF0A6"/>
<path d="M25.334 10.7728V30.9341C25.334 31.2287 25.0952 31.4675 24.8006 31.4675H15.0006C14.7061 31.4675 14.4673 31.2287 14.4673 30.9341V7.87893C14.4673 7.52266 14.8101 7.26659 15.1518 7.36753L24.9518 10.2614C25.1785 10.3283 25.334 10.5364 25.334 10.7728Z" fill="#FF6D7A"/>
<path d="M25.334 10.7727V11.0698C25.334 11.4261 24.9913 11.6822 24.6496 11.5813L17.152 9.36736C16.81 9.26669 16.4673 9.52269 16.4673 9.87869V31.4674H15.0006C14.7061 31.4674 14.4673 31.2286 14.4673 30.934V7.87882C14.4673 7.52282 14.8098 7.26676 15.1518 7.36742L24.9518 10.2613C25.1785 10.3279 25.334 10.536 25.334 10.7727Z" fill="#FF8C95"/>
<path d="M21.066 19.8672H17.5327V12.4005C17.5327 12.106 17.2939 11.8672 16.9994 11.8672H5.13271C4.83818 11.8672 4.59938 12.106 4.59938 12.4005V19.8672H1.06605C0.771515 19.8672 0.532715 20.106 0.532715 20.4005V30.9339C0.532715 31.2284 0.771515 31.4672 1.06605 31.4672H21.066C21.3606 31.4672 21.5994 31.2284 21.5994 30.9339V20.4005C21.5994 20.106 21.3606 19.8672 21.066 19.8672Z" fill="#CBE3FA"/>
<path d="M14.1333 27.0662V31.4662H8V27.0662C8 26.7716 8.2388 26.5328 8.53333 26.5328H13.6C13.8945 26.5328 14.1333 26.7716 14.1333 27.0662Z" fill="#42434D"/>
<path d="M10.5419 4.9697C10.5145 5.9579 9.67872 6.73284 8.69012 6.73284H3.29092C2.55386 6.73284 1.90346 6.2091 1.78999 5.48084C1.66506 4.6789 2.20139 3.90837 3.03972 3.78344C3.18446 3.76184 3.28392 3.62924 3.26559 3.48404C3.07079 1.93864 4.27739 0.532837 5.87332 0.532837C7.30586 0.532837 8.47746 1.68124 8.50066 3.1175C8.50806 3.1175 8.59192 3.1035 8.72799 3.1035C9.74712 3.1035 10.5704 3.94417 10.5419 4.9697Z" fill="#CBE3FA"/>
<path d="M6.1737 1.7057C5.2503 2.20057 4.65683 3.23264 4.79977 4.3529C4.81797 4.49564 4.72003 4.62864 4.57763 4.6493C3.86277 4.75324 3.38043 5.32357 3.31303 5.96297C3.26183 6.44897 2.68477 6.69124 2.30777 6.3803C1.33023 5.57404 1.76363 3.9723 3.0421 3.78317C3.18623 3.76184 3.2845 3.62857 3.2663 3.48404C3.07143 1.93864 4.27797 0.532837 5.87397 0.532837C6.5595 0.532837 6.73343 1.4057 6.1737 1.7057Z" fill="#EEF7FF"/>
<path d="M17.5327 19.8672V31.4672H18.3327C18.6272 31.4672 18.866 31.2284 18.866 30.9339V20.4005C18.866 20.106 18.6272 19.8672 18.3327 19.8672H17.5327Z" fill="#B5D5F5"/>
<path d="M4.59938 19.8672V20.5339H2.39938C2.10485 20.5339 1.86605 20.7727 1.86605 21.0672V30.9339C1.86605 31.2284 1.62725 31.4672 1.33271 31.4672H1.06605C0.771515 31.4672 0.532715 31.2284 0.532715 30.9339V20.4005C0.532715 20.106 0.771515 19.8672 1.06605 19.8672H4.59938Z" fill="#EEF7FF"/>
<path d="M17.5334 12.4005V12.6672C17.5334 12.9617 17.2946 13.2005 17.0001 13.2005H7.13343C6.8389 13.2005 6.6001 13.4393 6.6001 13.7339V31.4672H4.6001V12.4005C4.6001 12.106 4.8389 11.8672 5.13343 11.8672H17.0001C17.2946 11.8672 17.5334 12.106 17.5334 12.4005Z" fill="#EEF7FF"/>
<path d="M4.60042 19.8672V31.4672H3.80042C3.50589 31.4672 3.26709 31.2284 3.26709 30.9339V20.4005C3.26709 20.106 3.50589 19.8672 3.80042 19.8672H4.60042Z" fill="#B5D5F5"/>
<path d="M31.4667 3.13281H18.8667C18.5721 3.13281 18.3333 3.37161 18.3333 3.66615V6.05328C18.3333 6.34781 18.5721 6.58661 18.8667 6.58661C19.1612 6.58661 19.4 6.34781 19.4 6.05328V4.19948H30.9333V30.9328H25.8667V10.3726C25.8667 10.1362 25.7111 9.92801 25.4844 9.86108L14.6177 6.65275C14.2764 6.55201 13.9333 6.80808 13.9333 7.16428V9.06401C13.9333 9.35855 14.1721 9.59735 14.4667 9.59735C14.7612 9.59735 15 9.35855 15 9.06401V7.87781L24.8 10.7712V30.9328H22.1333V19.8661C22.1333 19.5716 21.8945 19.3328 21.6 19.3328H19.9C19.6055 19.3328 19.3667 19.5716 19.3667 19.8661C19.3667 20.1607 19.6055 20.3995 19.9 20.3995H21.0667V30.9328H18.0667V11.8661C18.0667 11.5716 17.8279 11.3328 17.5333 11.3328H4.6C4.30547 11.3328 4.06667 11.5716 4.06667 11.8661V30.9328H1.06667V20.3995H2.2538C2.54833 20.3995 2.78713 20.1607 2.78713 19.8661C2.78713 19.5716 2.54833 19.3328 2.2538 19.3328H0.533333C0.2388 19.3328 0 19.5716 0 19.8661V31.4662C0 31.7607 0.2388 31.9995 0.533333 31.9995H31.4667C31.7612 31.9995 32 31.7607 32 31.4662V3.66615C32 3.37161 31.7612 3.13281 31.4667 3.13281ZM8.53333 30.9328V27.0662H13.6V30.9328H8.53333ZM14.6667 30.9328V26.5328C14.6667 26.2383 14.4279 25.9995 14.1333 25.9995H8C7.70547 25.9995 7.46667 26.2383 7.46667 26.5328V30.9328H5.13333V12.3995H17V30.9328H14.6667Z" fill="black"/>
<path d="M28.6664 6.66724H23.9459C23.6514 6.66724 23.4126 6.90604 23.4126 7.20057C23.4126 7.4951 23.6514 7.7339 23.9459 7.7339H28.6664C28.9609 7.7339 29.1997 7.4951 29.1997 7.20057C29.1997 6.90604 28.9609 6.66724 28.6664 6.66724Z" fill="black"/>
<path d="M28.6661 12H27.6661C27.3716 12 27.1328 12.2388 27.1328 12.5333C27.1328 12.8279 27.3716 13.0667 27.6661 13.0667H28.6661C28.9607 13.0667 29.1995 12.8279 29.1995 12.5333C29.1995 12.2388 28.9607 12 28.6661 12Z" fill="black"/>
<path d="M28.6661 16.6672H27.6661C27.3716 16.6672 27.1328 16.906 27.1328 17.2006C27.1328 17.4951 27.3716 17.7339 27.6661 17.7339H28.6661C28.9607 17.7339 29.1995 17.4951 29.1995 17.2006C29.1995 16.906 28.9607 16.6672 28.6661 16.6672Z" fill="black"/>
<path d="M28.6661 21.3328H27.6661C27.3716 21.3328 27.1328 21.5716 27.1328 21.8661C27.1328 22.1606 27.3716 22.3994 27.6661 22.3994H28.6661C28.9607 22.3994 29.1995 22.1606 29.1995 21.8661C29.1995 21.5716 28.9607 21.3328 28.6661 21.3328Z" fill="black"/>
<path d="M28.6661 26H27.6661C27.3716 26 27.1328 26.2388 27.1328 26.5333C27.1328 26.8279 27.3716 27.0667 27.6661 27.0667H28.6661C28.9607 27.0667 29.1995 26.8279 29.1995 26.5333C29.1995 26.2388 28.9607 26 28.6661 26Z" fill="black"/>
<path d="M22.4003 14.7339C22.6949 14.7339 22.9337 14.4951 22.9337 14.2006C22.9337 13.906 22.6949 13.6672 22.4003 13.6672H21.2003C20.9058 13.6672 20.667 13.906 20.667 14.2006C20.667 14.4951 20.9058 14.7339 21.2003 14.7339H22.4003Z" fill="black"/>
<path d="M11.066 14.6C10.7715 14.6 10.5327 14.8388 10.5327 15.1333V23.8C10.5327 24.0945 10.7715 24.3333 11.066 24.3333C11.3606 24.3333 11.5994 24.0945 11.5994 23.8V15.1333C11.5994 14.8388 11.3606 14.6 11.066 14.6Z" fill="black"/>
<path d="M7.73353 15.2C7.439 15.2 7.2002 15.4388 7.2002 15.7333V23.2C7.2002 23.4945 7.439 23.7333 7.73353 23.7333C8.02806 23.7333 8.26686 23.4945 8.26686 23.2V15.7333C8.26686 15.4388 8.02806 15.2 7.73353 15.2Z" fill="black"/>
<path d="M14.4005 15.2C14.106 15.2 13.8672 15.4388 13.8672 15.7333V23.2C13.8672 23.4945 14.106 23.7333 14.4005 23.7333C14.6951 23.7333 14.9339 23.4945 14.9339 23.2V15.7333C14.9339 15.4388 14.6951 15.2 14.4005 15.2Z" fill="black"/>
<path d="M3.25597 7.26667H8.72824C10.0229 7.26667 11.0762 6.21333 11.0762 4.91867C11.0762 3.624 10.0229 2.57067 8.72824 2.57067C7.98064 2.57067 7.2711 2.93167 6.83004 3.5364C6.65644 3.7744 6.70877 4.108 6.9467 4.2816C7.18477 4.45513 7.5183 4.40287 7.6919 4.16493C7.93277 3.83453 8.32024 3.63733 8.72824 3.63733C9.43477 3.63733 10.0096 4.21213 10.0096 4.91867C10.0096 5.6252 9.4347 6.2 8.72824 6.2H3.25597C2.7319 6.2 2.30544 5.7736 2.30544 5.24947C2.30544 4.74007 2.7093 4.28707 3.3051 4.3002C3.65664 4.30687 3.9155 3.98187 3.8359 3.6444C3.5245 2.32593 4.52544 1.06667 5.87397 1.06667C6.2317 1.06667 6.58464 1.15833 6.89464 1.33173C7.15164 1.47553 7.47664 1.3838 7.6205 1.12673C7.76437 0.869667 7.6725 0.544733 7.4155 0.400867C6.9467 0.1386 6.4137 0 5.87397 0C4.03584 0 2.6305 1.54613 2.71557 3.30853C1.83337 3.5514 1.23877 4.35147 1.23877 5.24947C1.23877 6.3618 2.14364 7.26667 3.25597 7.26667Z" fill="black"/>
</g>
<defs>
<clipPath id="clip0_3323_730">
<rect width="32" height="32" fill="white"/>
</clipPath>
</defs>
</svg>
