<svg width="32" height="32" viewBox="0 0 32 32" fill="none" xmlns="http://www.w3.org/2000/svg">
<path d="M15.9555 31.464C5.21199 31.464 -1.31203 21.5965 3.79446 12.5103C4.2645 11.6738 5.06088 11.7978 5.95738 11.7978V9.4649C5.95738 8.87568 6.43462 8.39844 7.02384 8.39844H24.8871C25.4763 8.39844 25.9535 8.87568 25.9535 9.4649V11.7978C26.851 11.7978 27.6451 11.6714 28.1165 12.5103C33.2269 21.6136 26.6858 31.464 15.9555 31.464Z" fill="#BEFA91"/>
<path d="M25.9539 9.4649V11.7978H5.95776V9.4649C5.95776 8.87568 6.43501 8.39844 7.02423 8.39844H24.8875C25.4767 8.39844 25.9539 8.87568 25.9539 9.4649Z" fill="#FFBD7B"/>
<path d="M12.7264 4.24477C13.1153 4.56164 12.8913 5.19138 12.3896 5.19138C11.3893 5.19138 6.59952 5.19138 5.58898 5.19138C5.08727 5.19138 4.86325 4.56164 5.25218 4.24477L8.65246 1.47456C8.84855 1.31479 9.12997 1.31479 9.32606 1.47456L12.7264 4.24477Z" fill="#FF6D7A"/>
<path d="M12.3897 5.19091H8.79474C8.32123 5.19091 8.07681 4.61782 8.41061 4.28195C8.91505 3.77425 9.34416 3.20389 9.6883 2.58201C9.84973 2.29034 10.2341 2.21375 10.4925 2.42431L12.727 4.24443C13.1156 4.5611 12.8916 5.19091 12.3897 5.19091Z" fill="#FE4F60"/>
<path d="M25.9539 9.4649C25.9539 9.98014 25.5363 10.3981 25.0208 10.3981H9.0905C8.31791 10.3981 7.69077 11.0243 7.69077 11.7978H5.95776V9.4649C5.95776 8.87588 6.43521 8.39844 7.02423 8.39844H24.8875C25.4764 8.39844 25.9539 8.87588 25.9539 9.4649Z" fill="#FFD3A6"/>
<path d="M5.47658 23.9871C5.64455 25.1583 4.06286 25.6984 3.49123 24.6625C1.55767 21.1583 1.4151 16.7442 3.79417 12.511C4.04213 12.0697 4.5107 11.7985 5.01594 11.7985H26.8944C27.4003 11.7985 27.8682 12.0697 28.1162 12.511C28.6041 13.3808 28.986 14.2567 29.268 15.1312H8.34863C7.85299 15.1312 7.37342 15.3868 7.10021 15.8917C5.60189 18.5789 5.10239 21.3779 5.47658 23.9871Z" fill="#DAFFBF"/>
<path d="M29.8014 17.5527C29.3308 17.605 27.8382 17.3829 26.63 16.3576C25.8255 15.6751 24.6597 15.6751 23.8552 16.3576C21.9741 17.9535 19.2246 17.955 17.3431 16.3576C16.5379 15.6751 15.3728 15.6751 14.5677 16.3576C12.6871 17.9542 9.93761 17.9544 8.05557 16.3576C7.25106 15.6751 6.08528 15.6751 5.28077 16.3576C4.09073 17.3675 2.59628 17.6068 2.10938 17.5527C2.306 15.8903 2.8519 14.1867 3.79439 12.5097C4.26443 11.6732 5.06081 11.7971 5.9573 11.7971H26.8946C27.4005 11.7971 27.8684 12.0684 28.1164 12.5097C29.0582 14.1873 29.6048 15.8903 29.8014 17.5527Z" fill="#FFEBD2"/>
<path d="M28.684 13.6281C29.0049 14.3317 28.4841 15.1312 27.7107 15.1312H8.34885C7.85321 15.1312 7.37363 15.3868 7.10042 15.8917C5.22798 15.5036 5.03381 17.4968 2.12737 17.556L2.10938 17.554C2.306 15.8917 2.8519 14.188 3.79439 12.511C4.04234 12.0697 4.51091 11.7985 5.01615 11.7985H26.8946C27.9068 11.7985 28.2514 12.6798 28.684 13.6281Z" fill="#FFF3E4"/>
<path d="M28.7304 25.1943C22.8496 35.2417 5.65175 33.9609 2.06804 22.6957C1.85448 22.0245 2.87035 21.7 3.08431 22.3725C6.41581 32.8446 22.4266 33.853 27.81 24.6556C29.9234 21.0451 29.8657 16.7134 27.6519 12.7712C27.4994 12.4997 27.2093 12.331 26.895 12.331H5.01688C4.70254 12.331 4.41246 12.4997 4.25995 12.7712C3.4959 14.1319 2.98466 15.5398 2.73525 16.9654C3.54176 16.8351 4.30674 16.4859 4.93622 15.9518C5.9401 15.1002 7.39742 15.1001 8.40136 15.9518C10.0848 17.3802 12.542 17.3785 14.2233 15.9519C15.2273 15.1001 16.6844 15.1002 17.6884 15.9518C19.3719 17.3803 21.8291 17.3785 23.5105 15.9518C24.0746 15.4732 24.8166 15.2471 25.5467 15.3305C26.2462 15.4109 26.1266 16.4701 25.4251 16.3901C24.9806 16.3387 24.5457 16.4723 24.2004 16.7651C22.1232 18.5275 19.0816 18.5325 16.9985 16.7651C16.3944 16.2526 15.5175 16.2526 14.9133 16.7651C12.8361 18.5275 9.79456 18.5325 7.71143 16.7651C7.10728 16.2524 6.23031 16.2525 5.62622 16.7651C4.65108 17.5924 3.41252 18.0623 2.13863 18.0883C1.78829 18.0965 1.54314 17.8044 1.5804 17.4904C1.79229 15.7028 2.38098 13.9394 3.33013 12.2491C3.6712 11.6418 4.31754 11.2645 5.01694 11.2645H5.4246V9.46486C5.4246 8.58283 6.14219 7.86517 7.02429 7.86517H8.45735V5.05737H4.09152C3.59068 5.05737 3.36719 4.42643 3.75472 4.11075L8.65378 0.119852C8.84981 -0.0399174 9.13122 -0.039984 9.32732 0.119852L14.2264 4.11075C14.6159 4.42803 14.3876 5.05737 13.8892 5.05737C13.6224 5.05737 13.941 5.25373 8.99051 1.22097L5.59037 3.99091H8.99058C9.28506 3.99091 9.52381 4.22966 9.52381 4.52414V7.86517H21.8281L23.363 2.90245C23.6409 2.00369 24.4598 1.39974 25.4006 1.39974H27.4203C28.1249 1.39974 28.1258 2.4662 27.4203 2.4662H25.4006C24.9302 2.4662 24.5208 2.76814 24.3818 3.21753L22.9444 7.86517H24.8922C25.594 7.86517 25.5945 8.93163 24.8922 8.93163C23.0298 8.93163 9.13382 8.93163 7.02422 8.93163C6.73021 8.93163 6.49099 9.17085 6.49099 9.46486V11.2645H26.8948C27.5942 11.2645 28.2406 11.6418 28.5817 12.2491C30.9858 16.53 31.04 21.2485 28.7304 25.1943ZM7.62418 22.9956V22.7956C7.62418 22.0911 6.55771 22.0902 6.55771 22.7956V22.9956C6.55771 23.2901 6.79647 23.5288 7.09094 23.5288C7.38542 23.5288 7.62418 23.2901 7.62418 22.9956ZM9.62379 25.6618V25.4618C9.62379 24.7573 8.55733 24.7563 8.55733 25.4618V25.6618C8.55733 25.9562 8.79609 26.195 9.09056 26.195C9.38504 26.195 9.62379 25.9562 9.62379 25.6618ZM11.5568 22.9956V22.7956C11.5568 22.0911 10.4903 22.0902 10.4903 22.7956V22.9956C10.4903 23.2901 10.729 23.5288 11.0235 23.5288C11.318 23.5288 11.5568 23.2901 11.5568 22.9956Z" fill="black"/>
</svg>
