<svg width="192" height="41" viewBox="0 0 192 41" fill="none" xmlns="http://www.w3.org/2000/svg">
<path d="M34.6681 8.85742V28.9736H29.7407V25.0285H29.6967C28.5543 27.808 26.1503 29.4156 22.8361 29.4156C18.2602 29.4156 15.3854 26.3607 15.3854 21.2884V8.89585H20.4069V20.3661C20.4069 23.3378 22.0201 25.0734 24.7442 25.0734C27.776 25.0734 29.7093 22.8959 29.7093 19.3542V8.85742H34.6681Z" fill="black"/>
<path d="M39.8716 8.85742H44.7989V28.9737H39.8716V8.85742Z" fill="black"/>
<path d="M94.3301 20.6861C94.0099 25.8737 89.6726 29.3321 83.992 29.3321C77.6083 29.3321 73.1894 24.9066 73.1894 18.7904C73.1894 12.6742 77.5833 8.41528 83.8602 8.41528C90.1371 8.41528 94.1543 12.4372 93.9597 18.752H77.9599C78.0415 22.6971 80.4078 25.1116 83.879 25.1116C86.8731 25.1116 89.1202 23.2991 89.3211 20.6861H94.3301ZM78.6378 15.1719H88.6808C87.89 13.2506 86.1701 12.1555 83.7534 12.1555C81.3368 12.1555 79.5416 13.2826 78.6315 15.1719H78.6378Z" fill="black"/>
<path d="M109.15 8.43457C114.912 8.43457 119.25 12.9817 119.25 18.9378C119.25 24.8939 114.912 29.377 109.15 29.377C105.566 29.377 102.371 27.4557 100.908 24.6697V40.4182H99.0253V8.85726H100.908V13.161C102.358 10.3559 105.566 8.43457 109.15 8.43457ZM108.955 27.5133C110.609 27.5272 112.229 27.04 113.61 26.1134C114.992 25.1869 116.072 23.8626 116.715 22.3086C117.358 20.7546 117.535 19.0407 117.222 17.3843C116.909 15.728 116.121 14.2036 114.959 13.0046C113.796 11.8055 112.31 10.9857 110.69 10.6492C109.07 10.3126 107.389 10.4743 105.859 11.114C104.329 11.7536 103.02 12.8423 102.097 14.242C101.175 15.6417 100.68 17.2894 100.676 18.9762C100.636 20.1006 100.823 21.2214 101.224 22.2696C101.624 23.3178 102.231 24.2712 103.007 25.071C103.783 25.8708 104.71 26.5 105.734 26.9201C106.757 27.3401 107.853 27.542 108.955 27.5133Z" fill="black"/>
<path d="M123.229 0H125.112V28.9735H123.229V0Z" fill="black"/>
<path d="M149.605 20.6031H151.576C151.299 24.7467 154.181 27.6863 158.556 27.6863C161.989 27.6863 164.355 25.8739 164.355 23.2033C164.355 20.3085 161.675 19.905 160.69 19.7449L156.296 19.0596C153.026 18.5793 151.368 16.9269 151.368 14.2307C151.368 10.8556 154.011 8.63965 158.148 8.63965C162.052 8.63965 164.619 10.561 164.971 13.5454H163C162.529 11.6946 160.715 10.5738 158.192 10.5738C155.229 10.5738 153.377 11.9763 153.377 14.0706C153.377 16.5235 155.982 16.8501 156.93 16.9654L161.324 17.6058C164.795 18.131 166.49 19.8986 166.49 22.8382C166.49 26.8602 163.383 29.582 158.763 29.582C152.385 29.5692 149.253 25.9956 149.605 20.6031Z" fill="black"/>
<path d="M0.0444959 34.8081C3.48425 34.8081 5.51171 32.9316 5.51171 29.4924V8.85742H10.4391V29.5052C10.4391 36.2747 6.37791 39.9764 0.00683594 39.9764L0.0444959 34.8081Z" fill="black"/>
<path d="M145.041 8.93408V20.7246C145.041 25.0283 142.637 27.4812 138.764 27.4812H138.482C134.578 27.4812 132.205 25.0283 132.205 20.7246V8.93408H130.272V21.0064C130.272 26.2644 133.128 29.3321 137.848 29.4858H139.392C144.106 29.3385 146.968 26.2836 146.968 21.0064V8.93408H145.041Z" fill="black"/>
<path d="M39.1811 3.40705C39.1811 1.75472 40.5369 0.505859 42.3572 0.505859C44.1775 0.505859 45.5333 1.75472 45.5333 3.40705C45.5333 5.05939 44.1775 6.31466 42.3572 6.31466C40.5369 6.31466 39.1811 5.06579 39.1811 3.40705Z" fill="black"/>
<path d="M4.61413 3.40705C4.61413 1.75472 5.96994 0.505859 7.79025 0.505859C9.61055 0.505859 10.9664 1.75472 10.9664 3.40705C10.9664 5.05939 9.61055 6.31466 7.79025 6.31466C5.96994 6.31466 4.61413 5.06579 4.61413 3.40705Z" fill="black"/>
<path d="M186.482 17.4135H180.839V11.72H178.886V17.4135H173.25V19.4053H178.855V25.1308H180.813V19.4053H186.456L186.482 17.4135Z" fill="black"/>
<path d="M59.7442 29.377C65.5755 29.377 69.7873 25.8802 70.346 20.5838H65.1989C64.7407 23.2864 62.6881 25.0669 59.7819 25.0669C56.2731 25.0669 53.9067 22.5051 53.9067 18.9058C53.9067 15.3065 56.3547 12.7512 59.7066 12.7512C60.6762 12.7166 61.6366 12.9531 62.484 13.4351C63.3315 13.9171 64.0337 14.6262 64.5147 15.4859H69.7999C68.6575 11.2205 64.8348 8.48584 59.7066 8.48584C53.3167 8.48584 48.8224 12.7896 48.8224 18.9507C48.8224 25.1117 53.2163 29.409 59.7066 29.409L59.7442 29.377Z" fill="black"/>
<path d="M189.237 8.26733C190.838 8.26733 191.993 9.42424 191.993 11.0231C191.993 12.622 190.838 13.7789 189.237 13.7789C187.637 13.7789 186.482 12.622 186.482 11.0231C186.482 9.42424 187.637 8.26733 189.237 8.26733ZM189.225 13.194C190.482 13.194 191.396 12.284 191.396 11.0231C191.396 9.76221 190.482 8.85228 189.237 8.85228C187.993 8.85228 187.079 9.76221 187.079 11.0231C187.079 12.284 187.993 13.194 189.237 13.194H189.225ZM190.431 10.4252C190.431 10.8801 190.126 11.2311 189.656 11.2701L190.634 12.388H189.771L188.856 11.2701H188.831V12.388H188.171V9.60623H189.504C190.037 9.60623 190.418 9.9312 190.418 10.4252H190.431ZM188.844 10.1652V10.8931H189.326C189.568 10.8931 189.72 10.7501 189.72 10.5292C189.72 10.3082 189.58 10.1652 189.326 10.1652H188.844Z" fill="black"/>
</svg>
