<svg width="61" height="61" viewBox="0 0 61 61" fill="none" xmlns="http://www.w3.org/2000/svg">
<g clip-path="url(#clip0_1384_9706)">
<rect x="0.359375" y="0.762695" width="60" height="60" rx="30" fill="#FFCB00"/>
<rect x="0.359375" y="0.762695" width="60" height="60" fill="black" fill-opacity="0.02"/>
<path d="M48.7499 55.4704C48.3896 55.4694 48.0356 55.3755 47.7221 55.1978C47.4086 55.0201 47.1463 54.7645 46.9604 54.4558L45.5645 52.1246C44.2684 49.9672 42.436 48.182 40.2456 46.9426C38.0552 45.7032 35.5813 45.0518 33.0645 45.0517H26.9374C24.4211 45.0513 21.9475 45.7022 19.7571 46.9408C17.5667 48.1795 15.7341 49.9638 14.4374 52.1204L13.0416 54.4558C12.8554 54.7647 12.5926 55.0203 12.2788 55.198C11.965 55.3758 11.6106 55.4696 11.2499 55.4704C10.8818 55.4699 10.5204 55.3719 10.2025 55.1863C9.88458 55.0007 9.62152 54.7342 9.44009 54.4138C9.25866 54.0935 9.16535 53.7309 9.16964 53.3628C9.17393 52.9947 9.27567 52.6343 9.46452 52.3183L10.8624 49.9829C12.528 47.2098 14.8828 44.9148 17.6977 43.3209C20.5127 41.7271 23.6921 40.8886 26.927 40.8871H33.0729C36.3084 40.8879 39.4887 41.726 42.3045 43.3199C45.1203 44.9138 47.4756 47.2092 49.1416 49.9829L50.5374 52.3162C50.7269 52.6324 50.8291 52.9932 50.8335 53.3618C50.838 53.7304 50.7446 54.0936 50.5629 54.4142C50.3811 54.7349 50.1176 55.0017 49.7991 55.1872C49.4806 55.3728 49.1185 55.4705 48.7499 55.4704ZM29.9999 36.7204C27.5277 36.7204 25.1109 35.9873 23.0553 34.6138C20.9997 33.2403 19.3975 31.288 18.4514 29.0039C17.5053 26.7199 17.2578 24.2065 17.7401 21.7818C18.2224 19.357 19.4129 17.1297 21.1611 15.3816C22.9093 13.6334 25.1365 12.4429 27.5613 11.9606C29.9861 11.4783 32.4994 11.7258 34.7835 12.6719C37.0676 13.618 39.0198 15.2202 40.3933 17.2758C41.7668 19.3314 42.4999 21.7481 42.4999 24.2204C42.4966 27.5346 41.1786 30.7121 38.8351 33.0556C36.4916 35.3991 33.3141 36.7171 29.9999 36.7204ZM29.9999 15.8871C28.3518 15.8871 26.7406 16.3758 25.3702 17.2915C23.9998 18.2072 22.9317 19.5087 22.3009 21.0314C21.6702 22.5541 21.5052 24.2296 21.8267 25.8462C22.1483 27.4627 22.9419 28.9475 24.1074 30.113C25.2728 31.2784 26.7577 32.0721 28.3742 32.3936C29.9907 32.7152 31.6662 32.5501 33.189 31.9194C34.7117 31.2887 36.0132 30.2206 36.9288 28.8502C37.8445 27.4797 38.3333 25.8686 38.3333 24.2204C38.3333 22.0103 37.4553 19.8907 35.8925 18.3278C34.3297 16.765 32.2101 15.8871 29.9999 15.8871Z" fill="white"/>
</g>
<defs>
<clipPath id="clip0_1384_9706">
<rect x="0.359375" y="0.762695" width="60" height="60" rx="30" fill="white"/>
</clipPath>
</defs>
</svg>
