<svg width="24" height="25" viewBox="0 0 24 25" fill="none" xmlns="http://www.w3.org/2000/svg">
<g clip-path="url(#clip0_1514_2027)">
<path d="M7.99994 22.209C8.55222 22.209 8.99994 21.7613 8.99994 21.209C8.99994 20.6567 8.55222 20.209 7.99994 20.209C7.44765 20.209 6.99994 20.6567 6.99994 21.209C6.99994 21.7613 7.44765 22.209 7.99994 22.209Z" stroke="black" stroke-width="2" stroke-linecap="round" stroke-linejoin="round"/>
<path d="M18.9999 22.209C19.5522 22.209 19.9999 21.7613 19.9999 21.209C19.9999 20.6567 19.5522 20.209 18.9999 20.209C18.4477 20.209 17.9999 20.6567 17.9999 21.209C17.9999 21.7613 18.4477 22.209 18.9999 22.209Z" stroke="black" stroke-width="2" stroke-linecap="round" stroke-linejoin="round"/>
<path d="M2.04993 2.25903H4.04993L6.70993 14.679C6.80751 15.1339 7.0606 15.5405 7.42564 15.8289C7.79068 16.1173 8.24483 16.2694 8.70993 16.259H18.4899C18.9451 16.2583 19.3864 16.1023 19.741 15.8169C20.0955 15.5314 20.3421 15.1336 20.4399 14.689L22.0899 7.25903H5.11993" stroke="black" stroke-width="2" stroke-linecap="round" stroke-linejoin="round"/>
</g>
<defs>
<clipPath id="clip0_1514_2027">
<rect width="24" height="24" fill="white" transform="translate(-6.10352e-05 0.208984)"/>
</clipPath>
</defs>
</svg>
