<svg width="24" height="25" viewBox="0 0 24 25" fill="none" xmlns="http://www.w3.org/2000/svg">
<path d="M20 7.79059C19.405 8.05159 18.771 8.22459 18.11 8.30859C18.79 7.90259 19.309 7.26459 19.553 6.49559C18.919 6.87359 18.219 7.14059 17.473 7.28959C16.871 6.64859 16.013 6.25159 15.077 6.25159C13.261 6.25159 11.799 7.72559 11.799 9.53259C11.799 9.79259 11.821 10.0426 11.875 10.2806C9.148 10.1476 6.735 8.84059 5.114 6.84959C4.831 7.34059 4.665 7.90259 4.665 8.50759C4.665 9.64359 5.25 10.6506 6.122 11.2336C5.595 11.2236 5.078 11.0706 4.64 10.8296C4.64 10.8396 4.64 10.8526 4.64 10.8656C4.64 12.4596 5.777 13.7836 7.268 14.0886C7.001 14.1616 6.71 14.1966 6.408 14.1966C6.198 14.1966 5.986 14.1846 5.787 14.1406C6.212 15.4396 7.418 16.3946 8.852 16.4256C7.736 17.2986 6.319 17.8246 4.785 17.8246C4.516 17.8246 4.258 17.8126 4 17.7796C5.453 18.7166 7.175 19.2516 9.032 19.2516C15.068 19.2516 18.368 14.2516 18.368 9.91759C18.368 9.77259 18.363 9.63259 18.356 9.49359C19.007 9.03159 19.554 8.45459 20 7.79059Z" fill="#EB0045"/>
</svg>
