<svg width="22" height="22" viewBox="0 0 22 22" fill="none" xmlns="http://www.w3.org/2000/svg">
<path d="M11 3.66659C11 3.66659 8.76613 1.83325 5.96332 1.83325C3.1605 1.83325 0.374651 4.33936 1.00741 9.15494C1.64016 13.9705 8.31273 20.1666 11 20.1666" stroke="black" stroke-width="1.83333" stroke-linecap="round"/>
<path d="M11 3.66659C11 3.66659 13.2339 1.83325 16.0367 1.83325C18.8395 1.83325 21.6253 4.33936 20.9926 9.15494C20.3598 13.9705 13.6873 20.1666 11 20.1666" stroke="black" stroke-width="1.83333" stroke-linecap="round"/>
<path d="M11 14.6667C11 14.6667 7.66265 14.6667 6.41669 16.5001" stroke="black" stroke-width="1.83333" stroke-linecap="round"/>
<path d="M11 14.6667C11 14.6667 14.3373 14.6667 15.5833 16.5001" stroke="black" stroke-width="1.83333" stroke-linecap="round"/>
<circle cx="11" cy="10.0833" r="3.66667" stroke="black" stroke-width="1.83333"/>
</svg>
