<svg width="38" height="25" viewBox="0 0 38 25" fill="none" xmlns="http://www.w3.org/2000/svg">
<path opacity="0.07" d="M34.9984 0.515153H2.99843C2.60245 0.507825 2.20905 0.580416 1.84177 0.728586C1.47448 0.876756 1.14084 1.09746 0.860788 1.37751C0.580739 1.65756 0.360033 1.9912 0.211863 2.35849C0.0636928 2.72578 -0.00889826 3.11917 -0.00157092 3.51515V21.5152C0.000803171 22.3101 0.317636 23.0718 0.879731 23.6339C1.44183 24.1959 2.20351 24.5128 2.99843 24.5152H34.9984C35.3944 24.5225 35.7878 24.4499 36.1551 24.3017C36.5224 24.1535 36.856 23.9328 37.1361 23.6528C37.4161 23.3727 37.6368 23.0391 37.785 22.6718C37.9332 22.3045 38.0058 21.9111 37.9984 21.5152V3.51515C37.9961 2.72023 37.6792 1.95855 37.1171 1.39645C36.555 0.83436 35.7933 0.517527 34.9984 0.515153V0.515153Z" fill="black"/>
<path d="M34.9984 1.51514C35.5284 1.51672 36.0361 1.72794 36.4109 2.10267C36.7856 2.4774 36.9968 2.98519 36.9984 3.51514V21.5151C36.9968 22.0451 36.7856 22.5529 36.4109 22.9276C36.0361 23.3023 35.5284 23.5136 34.9984 23.5151H2.99841C2.46847 23.5136 1.96068 23.3023 1.58595 22.9276C1.21122 22.5529 0.999996 22.0451 0.998413 21.5151V3.51514C0.999996 2.98519 1.21122 2.4774 1.58595 2.10267C1.96068 1.72794 2.46847 1.51672 2.99841 1.51514H34.9984Z" fill="white"/>
<path d="M23.8984 8.81496C24.0162 8.4132 24.0226 7.98698 23.9169 7.58186C23.8113 7.17675 23.5975 6.80797 23.2984 6.51496C22.881 6.13982 22.3891 5.85688 21.855 5.68458C21.3208 5.51227 20.7564 5.45448 20.1984 5.51496H16.0984C15.9569 5.51937 15.821 5.57099 15.7123 5.6616C15.6035 5.75221 15.5283 5.8766 15.4984 6.01496L13.9984 16.115C13.9984 16.315 14.0984 16.515 14.2984 16.515H16.9984L17.3984 13.115L19.1984 10.915L23.8984 8.81496V8.81496Z" fill="#003087"/>
<path d="M23.8984 8.81494L23.6984 9.01494C23.1984 11.8149 21.4984 12.8149 19.0984 12.8149H17.9984C17.8569 12.8193 17.721 12.871 17.6123 12.9616C17.5035 13.0522 17.4282 13.1766 17.3984 13.3149L16.7984 17.2149L16.5984 18.2149C16.5984 18.4149 16.6984 18.6149 16.8984 18.6149H18.9984C19.1175 18.6268 19.2365 18.5916 19.3299 18.5168C19.4233 18.4421 19.4838 18.3337 19.4984 18.2149V18.1149L19.8984 15.7149V15.6149C19.8984 15.4149 20.1984 15.2149 20.3984 15.2149H20.6984C22.7984 15.2149 24.3984 14.4149 24.7984 12.0149C24.9215 11.6112 24.9495 11.1844 24.8801 10.768C24.8107 10.3516 24.6458 9.95695 24.3984 9.61494C24.3865 9.45095 24.3348 9.29234 24.2476 9.15291C24.1605 9.01348 24.0406 8.89746 23.8984 8.81494V8.81494Z" fill="#3086C8"/>
<path d="M23.2984 8.6152C23.259 8.57723 23.2117 8.54854 23.1598 8.53123C23.1079 8.51393 23.0527 8.50846 22.9984 8.5152C22.9441 8.52195 22.889 8.51648 22.8371 8.49917C22.7852 8.48187 22.7378 8.45318 22.6984 8.4152C22.3387 8.32776 21.968 8.29406 21.5984 8.3152H18.5984C18.4984 8.3152 18.3984 8.3152 18.3984 8.4152C18.1984 8.5152 18.0984 8.6152 18.0984 8.8152L17.3984 13.2152V13.3152C17.4136 13.1701 17.4848 13.0367 17.5969 12.9433C17.7089 12.85 17.853 12.804 17.9984 12.8152H19.2984C21.7984 12.8152 23.3984 11.8152 23.8984 9.0152V8.8152C23.7616 8.69006 23.5839 8.61898 23.3984 8.6152H23.2984V8.6152Z" fill="#012169"/>
</svg>
