<svg width="38" height="25" viewBox="0 0 38 25" fill="none" xmlns="http://www.w3.org/2000/svg">
<path opacity="0.07" d="M35.0015 0.515153H3.00148C2.6055 0.507825 2.21211 0.580416 1.84482 0.728586C1.47753 0.876756 1.14389 1.09746 0.86384 1.37751C0.583791 1.65756 0.363085 1.9912 0.214915 2.35849C0.0667446 2.72578 -0.0058465 3.11917 0.00148084 3.51515V21.5152C0.00385493 22.3101 0.320688 23.0718 0.882783 23.6339C1.44488 24.1959 2.20656 24.5128 3.00148 24.5152H35.0015C35.3975 24.5225 35.7909 24.4499 36.1581 24.3017C36.5254 24.1535 36.8591 23.9328 37.1391 23.6528C37.4192 23.3727 37.6399 23.0391 37.788 22.6718C37.9362 22.3045 38.0088 21.9111 38.0015 21.5152V3.51515C37.9991 2.72023 37.6823 1.95855 37.1202 1.39645C36.5581 0.83436 35.7964 0.517527 35.0015 0.515153V0.515153Z" fill="black"/>
<path d="M35.0015 1.51514C35.5314 1.51672 36.0392 1.72794 36.4139 2.10267C36.7887 2.4774 36.9999 2.98519 37.0015 3.51514V21.5151C36.9999 22.0451 36.7887 22.5529 36.4139 22.9276C36.0392 23.3023 35.5314 23.5136 35.0015 23.5151H3.00146C2.47152 23.5136 1.96373 23.3023 1.589 22.9276C1.21427 22.5529 1.00305 22.0451 1.00146 21.5151V3.51514C1.00305 2.98519 1.21427 2.4774 1.589 2.10267C1.96373 1.72794 2.47152 1.51672 3.00146 1.51514H35.0015Z" fill="white"/>
<path fill-rule="evenodd" clip-rule="evenodd" d="M11.5015 5.51514H15.0015V17.0151C15.0015 17.6782 14.7381 18.3141 14.2692 18.7829C13.8004 19.2517 13.1645 19.5151 12.5015 19.5151H9.00146V8.01514C9.00146 7.3521 9.26486 6.71621 9.7337 6.24737C10.2025 5.77853 10.8384 5.51514 11.5015 5.51514Z" fill="#006EBC"/>
<path fill-rule="evenodd" clip-rule="evenodd" d="M18.5015 5.51514H22.0015V17.0151C22.0015 17.6782 21.7381 18.3141 21.2692 18.7829C20.8004 19.2517 20.1645 19.5151 19.5015 19.5151H16.0015V8.01514C16.0015 7.3521 16.2649 6.71621 16.7337 6.24737C17.2025 5.77853 17.8384 5.51514 18.5015 5.51514Z" fill="#F00036"/>
<path fill-rule="evenodd" clip-rule="evenodd" d="M25.5015 5.51514H29.0015V17.0151C29.0015 17.6782 28.7381 18.3141 28.2692 18.7829C27.8004 19.2517 27.1645 19.5151 26.5015 19.5151H23.0015V8.01514C23.0015 7.3521 23.2649 6.71621 23.7337 6.24737C24.2025 5.77853 24.8384 5.51514 25.5015 5.51514V5.51514Z" fill="#2AB419"/>
<path d="M10.7564 15.0153C10.2689 15.0519 9.77922 14.9827 9.32095 14.8123C8.86268 14.642 8.44667 14.3745 8.10144 14.0283L8.88144 13.3523C8.94944 14.4853 12.4264 14.5923 12.4264 13.1623V10.0153H14.2264V13.1623C14.2264 13.8903 13.6524 14.4843 12.6534 14.7943C12.032 14.9425 11.3953 15.0167 10.7564 15.0153V15.0153ZM18.8724 15.0153C18.1993 15.0285 17.5307 14.904 16.9074 14.6493C16.4848 14.4687 16.1308 14.158 15.897 13.7623C15.6632 13.3666 15.5617 12.9066 15.6074 12.4493C15.5764 11.9767 15.7039 11.5072 15.9698 11.1152C16.2357 10.7233 16.6248 10.4312 17.0754 10.2853C17.7136 10.06 18.3912 9.96769 19.0664 10.0141C19.7416 10.0606 20.4001 10.2447 21.0014 10.5553V11.5273C20.593 11.2111 20.1112 11.0031 19.601 10.9227C19.0907 10.8423 18.5684 10.8921 18.0824 11.0673C17.8438 11.2238 17.6498 11.4394 17.5194 11.6932C17.389 11.947 17.3267 12.2302 17.3384 12.5153C17.3208 12.8085 17.3801 13.1013 17.5107 13.3644C17.6412 13.6276 17.8383 13.852 18.0824 14.0153C18.5672 14.1919 19.0886 14.2438 19.5987 14.1662C20.1087 14.0886 20.5911 13.884 21.0014 13.5713V14.5813C20.339 14.9012 19.6072 15.0504 18.8724 15.0153V15.0153ZM27.5514 12.4283C27.7293 12.3279 27.877 12.1818 27.9793 12.0051C28.0816 11.8284 28.1349 11.6275 28.1334 11.4233C28.1444 11.2512 28.1191 11.0786 28.0591 10.9169C27.9992 10.7551 27.906 10.6078 27.7854 10.4843C27.6224 10.3253 27.4283 10.2016 27.2153 10.1209C27.0023 10.0402 26.7749 10.0043 26.5474 10.0153H23.0014V15.0153H26.5474C27.0217 15.0417 27.4892 14.8941 27.8624 14.6003C28.0034 14.4846 28.1154 14.3376 28.1893 14.1709C28.2633 14.0042 28.2972 13.8225 28.2884 13.6403C28.298 13.3883 28.2332 13.139 28.1022 12.9235C27.9711 12.708 27.7796 12.5358 27.5514 12.4283V12.4283ZM25.6454 12.1473H24.2174V10.7033H25.7174C25.8139 10.7054 25.9089 10.7267 25.997 10.7661C26.085 10.8055 26.1643 10.8621 26.2302 10.9326C26.296 11.003 26.3471 11.086 26.3804 11.1765C26.4137 11.267 26.4286 11.3633 26.4241 11.4597C26.4196 11.556 26.3959 11.6505 26.3544 11.7376C26.3128 11.8246 26.2543 11.9025 26.1822 11.9665C26.1101 12.0306 26.0259 12.0796 25.9346 12.1107C25.8433 12.1417 25.7467 12.1542 25.6504 12.1473H25.6454ZM25.9334 14.3043H24.2174V12.7913H25.9334C26.0351 12.7876 26.1365 12.8045 26.2315 12.8408C26.3265 12.8772 26.4132 12.9323 26.4864 13.0029C26.5596 13.0735 26.6179 13.1582 26.6577 13.2518C26.6974 13.3454 26.7179 13.4461 26.7179 13.5478C26.7179 13.6495 26.6974 13.7502 26.6577 13.8439C26.6179 13.9375 26.5596 14.0221 26.4864 14.0927C26.4132 14.1634 26.3265 14.2185 26.2315 14.2548C26.1365 14.2912 26.0351 14.308 25.9334 14.3043V14.3043Z" fill="white"/>
</svg>
