<svg width="38" height="25" viewBox="0 0 38 25" fill="none" xmlns="http://www.w3.org/2000/svg">
<path opacity="0.07" d="M35.0025 0.515153H3.00246C2.60648 0.507825 2.21308 0.580416 1.84579 0.728586C1.47851 0.876756 1.14487 1.09746 0.864817 1.37751C0.584768 1.65756 0.364061 1.9912 0.215891 2.35849C0.0677212 2.72578 -0.00486994 3.11917 0.0024574 3.51515V21.5152C0.00483149 22.3101 0.321664 23.0718 0.88376 23.6339C1.44586 24.1959 2.20754 24.5128 3.00246 24.5152H35.0025C35.3984 24.5225 35.7918 24.4499 36.1591 24.3017C36.5264 24.1535 36.86 23.9328 37.1401 23.6528C37.4201 23.3727 37.6409 23.0391 37.789 22.6718C37.9372 22.3045 38.0098 21.9111 38.0025 21.5152V3.51515C38.0001 2.72023 37.6833 1.95855 37.1212 1.39645C36.5591 0.83436 35.7974 0.517527 35.0025 0.515153V0.515153Z" fill="black"/>
<path d="M35.0024 1.51514C35.5324 1.51672 36.0402 1.72794 36.4149 2.10267C36.7896 2.4774 37.0009 2.98519 37.0024 3.51514V21.5151C37.0009 22.0451 36.7896 22.5529 36.4149 22.9276C36.0402 23.3023 35.5324 23.5136 35.0024 23.5151H3.00244C2.4725 23.5136 1.96471 23.3023 1.58998 22.9276C1.21525 22.5529 1.00402 22.0451 1.00244 21.5151V3.51514C1.00402 2.98519 1.21525 2.4774 1.58998 2.10267C1.96471 1.72794 2.4725 1.51672 3.00244 1.51514H35.0024Z" fill="white"/>
<path d="M37.0025 17.4653V21.5153C37.0009 22.0453 36.7897 22.5531 36.4149 22.9278C36.0402 23.3025 35.5324 23.5137 35.0025 23.5153H23.2305C31.1265 21.7003 35.2735 18.9153 37.0025 17.4653Z" fill="#EDA024"/>
<path d="M9.00244 11.5151H29.0024V13.5151H9.00244V11.5151Z" fill="#494949"/>
<path d="M22.0024 12.5152C22.0098 12.9111 21.9372 13.3045 21.789 13.6718C21.6408 14.0391 21.4201 14.3727 21.1401 14.6528C20.86 14.9328 20.5264 15.1535 20.1591 15.3017C19.7918 15.4499 19.3984 15.5225 19.0024 15.5152C18.2075 15.5128 17.4458 15.1959 16.8837 14.6339C16.3216 14.0718 16.0048 13.3101 16.0024 12.5152C16.0217 11.7256 16.344 10.9737 16.9025 10.4152C17.4609 9.85669 18.2129 9.53443 19.0024 9.51515C19.3984 9.50783 19.7918 9.58042 20.1591 9.72859C20.5264 9.87676 20.86 10.0975 21.1401 10.3775C21.4201 10.6576 21.6408 10.9912 21.789 11.3585C21.9372 11.7258 22.0098 12.1192 22.0024 12.5152Z" fill="#EDA024"/>
</svg>
