<svg width="34" height="34" viewBox="0 0 34 34" fill="none" xmlns="http://www.w3.org/2000/svg">
<g clip-path="url(#clip0_1384_9649)">
<path d="M26.9164 30.5556H7.08169C6.71245 30.5545 6.34708 30.4804 6.00666 30.3373C5.66625 30.1943 5.35754 29.9853 5.09836 29.7223C2.04014 26.5709 0.349234 22.3399 0.393106 17.9488C0.436978 13.5576 2.21209 9.36127 5.33266 6.27162C8.45323 3.18198 12.6671 1.44875 17.0584 1.44861C21.4497 1.44847 25.6637 3.18143 28.7845 6.27088C31.8895 9.37613 33.6435 13.5813 33.6653 17.9726C33.6872 22.3638 31.9751 26.5863 28.9011 29.7223C28.4384 30.1936 27.8229 30.4846 27.165 30.5431L26.9164 30.5556ZM3.17891 19.4445C3.46936 22.431 4.72877 25.2405 6.76502 27.4445L7.08169 27.7778H26.9164C29.1252 25.5232 30.5019 22.5847 30.8206 19.4445L27.4234 19.4612C27.0682 19.4641 26.7255 19.3308 26.4656 19.0888C26.2056 18.8468 26.0483 18.5144 26.0259 18.1599C26.0035 17.8055 26.1177 17.456 26.3451 17.1831C26.5724 16.9103 26.8957 16.7349 27.2484 16.6931L27.4109 16.6834L30.8192 16.6667C30.5055 13.5453 29.1443 10.6221 26.9572 8.37299C24.7702 6.12391 21.8861 4.68148 18.7747 4.2806L18.3886 4.23477V7.51393C18.3882 7.86793 18.2527 8.20842 18.0097 8.46583C17.7667 8.72325 17.4345 8.87815 17.0811 8.89889C16.7278 8.91964 16.3798 8.80466 16.1083 8.57745C15.8368 8.35025 15.6624 8.02796 15.6206 7.67643L15.6109 7.51393V4.23477C12.7267 4.51749 10.0051 5.70236 7.83308 7.62088L9.82197 9.60838C10.0731 9.8588 10.2189 10.1958 10.2295 10.5503C10.2401 10.9048 10.1148 11.2499 9.87906 11.5149C9.64337 11.7799 9.31524 11.9447 8.96193 11.9755C8.60863 12.0063 8.25692 11.9008 7.97891 11.6806L7.85808 11.5737L5.94003 9.65421C4.38793 11.6909 3.43203 14.1186 3.17891 16.6667L6.44697 16.6792C6.80018 16.682 7.13906 16.8192 7.39466 17.063C7.65026 17.3068 7.80337 17.6388 7.82284 17.9915C7.8423 18.3442 7.72666 18.6911 7.49944 18.9615C7.27223 19.2319 6.95051 19.4056 6.59975 19.4473L6.43725 19.4556L3.17891 19.4445ZM16.9997 23.6112C16.3689 23.6109 15.7463 23.4673 15.179 23.1914C14.6118 22.9154 14.1145 22.5142 13.7249 22.0181C13.3352 21.522 13.0633 20.9438 12.9296 20.3273C12.796 19.7108 12.804 19.072 12.9532 18.459C13.1025 17.846 13.3889 17.275 13.791 16.7889C14.1931 16.3027 14.7003 15.9143 15.2744 15.6527C15.8484 15.3912 16.4744 15.2635 17.1051 15.2791C17.7357 15.2948 18.3546 15.4534 18.915 15.7431L23.0331 10.9487C23.2162 10.7335 23.4744 10.5962 23.7552 10.5646C24.0359 10.5331 24.3182 10.6097 24.5445 10.7788C24.7708 10.948 24.9241 11.197 24.9733 11.4752C25.0226 11.7534 24.964 12.0399 24.8095 12.2764L24.7192 12.3973L20.5456 17.2584C20.9346 17.8896 21.1481 18.6131 21.1642 19.3544C21.1802 20.0957 20.9981 20.8278 20.6368 21.4752C20.2754 22.1226 19.7478 22.6619 19.1085 23.0374C18.4691 23.4129 17.7412 23.6109 16.9997 23.6112V23.6112ZM16.9997 18.0556C16.725 18.0556 16.4565 18.1371 16.2281 18.2897C15.9997 18.4423 15.8217 18.6592 15.7166 18.913C15.6115 19.1668 15.584 19.446 15.6375 19.7154C15.6911 19.9849 15.8234 20.2323 16.0177 20.4266C16.2119 20.6208 16.4594 20.7531 16.7288 20.8067C16.9982 20.8603 17.2775 20.8328 17.5313 20.7277C17.785 20.6225 18.002 20.4445 18.1546 20.2161C18.3072 19.9877 18.3886 19.7192 18.3886 19.4445C18.3886 19.0761 18.2423 18.7229 17.9818 18.4624C17.7214 18.2019 17.3681 18.0556 16.9997 18.0556Z" fill="white"/>
</g>
<defs>
<clipPath id="clip0_1384_9649">
<rect width="33.3333" height="33.3333" fill="white" transform="translate(0.33316)"/>
</clipPath>
</defs>
</svg>
