<svg width="32" height="32" viewBox="0 0 32 32" fill="none" xmlns="http://www.w3.org/2000/svg">
<g clip-path="url(#clip0_3323_757)">
<path d="M22.2748 31.4526H7.6034C4.22417 26.2745 2.88122 20.0292 3.7824 13.9315H3.78307C4.46368 9.31324 6.42417 4.84696 9.66389 1.10529C10.3245 0.34202 11.5157 0.34202 12.1763 1.10529C14.0448 3.2631 15.4874 5.66222 16.5046 8.19267C17.8985 6.10485 19.6237 4.19768 21.6655 2.55449C22.4514 1.92188 23.624 2.13453 24.1373 3.00312C29.5188 12.1057 28.5662 23.418 22.2748 31.4526Z" fill="#FE4F60"/>
<path d="M24.1384 3.00341C29.52 12.1059 28.5674 23.4183 22.2759 31.4529H14.2373C18.7996 24.4615 19.5396 15.7133 16.5058 8.19296C17.8997 6.10514 19.6248 4.19797 21.6667 2.55478C22.4526 1.92217 23.6252 2.13482 24.1384 3.00341Z" fill="#BEFA91"/>
<path d="M17.9876 31.4523H14.2373C18.7905 24.4748 19.5458 15.7285 16.5058 8.19231C16.6665 7.95166 16.8315 7.71355 17.0009 7.4779C17.4705 6.8247 18.4699 6.90056 18.824 7.62289C22.5456 15.2148 22.2003 24.202 17.9876 31.4523Z" fill="#99D856"/>
<path d="M22.6033 18.5759C21.9786 18.6816 21.4001 18.2103 21.3712 17.5773C21.2164 14.1824 20.3694 10.7749 18.8247 7.62367C18.4708 6.9024 17.4748 6.82508 17.0049 7.47435C18.3041 5.66651 19.862 4.00732 21.6671 2.55478C22.4531 1.92217 23.6256 2.13482 24.1389 3.00341C26.1008 6.32239 27.2695 10.0201 27.5702 13.848C27.62 14.482 26.0563 17.9919 22.6033 18.5759Z" fill="#DAFFBF"/>
<path d="M7.78205 15.9313C7.00546 21.1859 7.88738 26.6454 10.4265 31.4526H7.6034C4.22417 26.2745 2.88122 20.0292 3.7824 13.9315H3.78307C4.46368 9.31324 6.42417 4.84696 9.66389 1.10529C10.3245 0.34202 11.5157 0.34202 12.1763 1.10529C12.5268 1.50998 12.8621 1.92322 13.1825 2.34418C13.4849 2.74174 13.472 3.29756 13.1481 3.6778C10.8161 6.41476 8.50926 11.0018 7.78279 15.9313H7.78205Z" fill="#FF6D7A"/>
<path d="M18.2362 15.4484L3.68677 20.6326C3.42346 18.4061 3.45546 16.151 3.78343 13.9318C3.79016 13.9318 3.66857 13.973 16.9056 9.25623C17.6102 11.2667 18.0542 13.3485 18.2362 15.4484Z" fill="#CAF1FC"/>
<path d="M8.62367 12.2063C7.94879 14.4087 7.5501 16.789 7.5131 19.2683L3.68677 20.6316C3.42346 18.4051 3.45546 16.15 3.78343 13.9308C3.79009 13.9308 3.74383 13.9451 8.62367 12.2063Z" fill="#E3F7FC"/>
<path d="M29.1985 31.986H18.2766C17.572 31.986 17.571 30.9194 18.2766 30.9194H29.1985C29.9031 30.9194 29.904 31.986 29.1985 31.986ZM18.8088 19.3356C18.8545 18.6335 17.7906 18.5604 17.7444 19.2662C17.4743 23.4112 16.1616 27.4337 13.9452 30.9194H11.4667V27.0531C11.4667 26.3485 10.4001 26.3475 10.4001 27.0531V30.9194H7.89509C5.99612 27.9317 4.74823 24.5136 4.26954 20.9906C19.204 15.6688 18.6578 15.9711 18.7539 15.5719C18.8216 15.2889 18.5002 11.8457 17.1044 8.26005C18.466 6.26916 20.1114 4.49005 22.0001 2.97012C22.5333 2.54109 23.3307 2.68641 23.6786 3.27482C28.0629 10.6904 28.2408 20.0213 24.1429 27.6263C23.808 28.2478 24.7478 28.7523 25.0819 28.1323C29.371 20.1722 29.2032 10.5234 24.5968 2.73207C23.9177 1.5835 22.3697 1.30366 21.3315 2.13919C18.3715 4.52131 16.095 7.61651 15.9871 8.0684C15.9609 8.17719 15.9708 8.28918 16.0089 8.38684C16.8402 10.5131 17.4083 12.5999 17.665 15.0849C2.48676 20.4937 3.23356 20.1005 3.16017 20.5453C3.12871 20.735 3.57487 25.7969 6.6422 30.9194H2.8008C2.0962 30.9194 2.0952 31.986 2.8008 31.986C15.1915 31.986 14.4091 32.077 14.6452 31.7953C14.9331 31.4525 18.3469 26.4225 18.8088 19.3356ZM2.99238 16.7472C2.96792 17.454 4.03403 17.4867 4.05829 16.784C4.08682 15.9591 4.15808 15.1385 4.26854 14.3249L14.4158 10.709C15.0795 10.4725 14.7224 9.46735 14.0578 9.70439L4.46046 13.1242C5.26079 8.82474 7.19228 4.77536 10.0674 1.45425C10.5153 0.936827 11.3259 0.937427 11.7734 1.45425C14.3528 4.43385 14.2557 5.61009 15.0391 5.14233C15.2919 4.99127 15.3744 4.66383 15.2234 4.41099C14.4549 3.12444 13.5655 1.89474 12.5797 0.756109C11.7064 -0.25267 10.1334 -0.251403 9.2611 0.756109C5.51823 5.07953 3.2033 10.6454 2.99238 16.7472ZM10.4001 24.3866V24.9199C10.4001 25.6245 11.4667 25.6255 11.4667 24.9199V24.3866C11.4667 23.6821 10.4001 23.681 10.4001 24.3866Z" fill="black"/>
</g>
<defs>
<clipPath id="clip0_3323_757">
<rect width="32" height="32" fill="white"/>
</clipPath>
</defs>
</svg>
