<svg width="20" height="21" viewBox="0 0 20 21" fill="none" xmlns="http://www.w3.org/2000/svg">
<g clip-path="url(#clip0_1513_2005)">
<path d="M6.66447 19.9295C4.86848 19.8977 3.15839 19.1548 1.9091 17.8637C0.659806 16.5726 -0.0267247 14.8387 2.07188e-05 13.042V12.8878L0.004186 12.7745L2.07188e-05 12.6237C0.00252357 12.1804 0.0698822 11.7399 0.199954 11.3162L0.366565 10.7887C0.565391 10.1877 0.848092 9.61795 1.20629 9.09616L1.46287 8.65699L2.62914 6.68699C2.70079 6.55866 2.69745 6.54616 2.69162 6.52033C2.69089 6.51312 2.69089 6.50586 2.69162 6.49866L2.69912 6.24199C2.7397 5.35236 3.07591 4.50172 3.65446 3.82486C4.23301 3.148 5.02082 2.68362 5.89306 2.50533C5.99103 1.9898 6.20876 1.50453 6.52868 1.08866C6.59372 0.998308 6.67621 0.921911 6.77126 0.863982C6.86631 0.806053 6.97201 0.767765 7.0821 0.751381C7.19219 0.734997 7.30445 0.740849 7.41225 0.76859C7.52004 0.796331 7.62118 0.8454 7.7097 0.912898C7.79822 0.980396 7.87232 1.06495 7.92763 1.16158C7.98293 1.2582 8.01832 1.36493 8.0317 1.47547C8.04508 1.586 8.03618 1.6981 8.00553 1.80513C7.97488 1.91217 7.92309 2.01198 7.85324 2.09866C7.7484 2.23261 7.66417 2.38147 7.60332 2.54033C8.15447 2.67745 8.66998 2.93076 9.11535 3.28329C9.56072 3.63583 9.92567 4.07946 10.1858 4.58449C10.2365 4.68174 10.2676 4.78805 10.2772 4.89733C10.2868 5.0066 10.2747 5.1167 10.2416 5.2213C10.2086 5.3259 10.1552 5.42294 10.0846 5.50686C10.014 5.59078 9.92748 5.65992 9.83008 5.71033C9.63397 5.81174 9.40563 5.83115 9.19523 5.76427C8.98483 5.6974 8.80957 5.54971 8.70795 5.35366C8.52899 5.00057 8.26167 4.69985 7.93203 4.4808C7.60239 4.26174 7.22166 4.13181 6.82691 4.10366L6.66447 4.09616C6.09419 4.09801 5.54473 4.31066 5.12169 4.69322C4.69866 5.07579 4.43191 5.60127 4.37273 6.16866L4.36107 6.30949L4.3519 6.57199C4.27341 7.07835 4.08612 7.56168 3.80292 7.98866L2.61415 9.98033C2.37758 10.3189 2.18185 10.6842 2.03101 11.0687L1.9477 11.297L1.8544 11.5987C1.74154 11.9151 1.67804 12.247 1.66613 12.5828L1.67113 12.8145C1.67113 12.8978 1.66613 12.9737 1.66613 13.0428C1.63909 14.3975 2.15002 15.7076 3.08694 16.6861C4.02386 17.6645 5.31035 18.2316 6.66447 18.2628C6.95077 18.2628 7.23652 18.2375 7.51835 18.187C7.33545 17.9506 7.16847 17.7022 7.01851 17.4437L6.8669 17.1703L6.77526 16.992C6.16803 15.7446 5.84132 14.3792 5.81808 12.992C5.75889 11.729 6.06614 10.4759 6.70279 9.38366C6.99384 8.89789 7.3845 8.47934 7.84902 8.15558C8.31353 7.83181 8.84136 7.6102 9.39772 7.50533C9.66696 7.45511 9.94024 7.42973 10.2141 7.42949C10.7884 7.43522 11.3584 7.5288 11.9044 7.70699L12.1543 7.79033C12.3061 7.09789 12.6273 6.45394 13.089 5.91616C13.4007 5.53682 13.7887 5.22734 14.2278 5.00783C14.3375 4.95632 14.4573 4.92958 14.5785 4.92949C14.7602 4.92911 14.9371 4.98818 15.0821 5.09769C15.2271 5.2072 15.3324 5.36114 15.3819 5.53606C15.4313 5.71098 15.4222 5.89727 15.356 6.06655C15.2898 6.23582 15.17 6.37879 15.015 6.47366L14.9317 6.51949C14.7102 6.64264 14.5143 6.80697 14.3544 7.00366C14.1746 7.21265 14.0298 7.44931 13.9254 7.70449C14.4697 7.52793 15.0376 7.4352 15.6098 7.42949C15.8833 7.42908 16.1563 7.45363 16.4254 7.50283C16.9818 7.6075 17.5097 7.82903 17.9743 8.15281C18.4388 8.47659 18.8294 8.89525 19.1203 9.38116C19.7564 10.4728 20.0615 11.7259 19.9984 12.9878C19.9713 14.3776 19.6403 15.7447 19.0287 16.9928C18.6326 17.8388 18.0447 18.5807 17.3118 19.1595C16.676 19.6557 15.8939 19.9273 15.0875 19.932C14.3927 19.9207 13.7114 19.7381 13.104 19.4003L12.9132 19.2937L12.7158 19.4037C12.104 19.7387 11.4197 19.9192 10.7223 19.9295C10.1251 19.9289 9.53767 19.7785 9.01368 19.492C8.2645 19.7823 7.46788 19.9306 6.66447 19.9295V19.9295ZM10.2058 9.09616C10.0382 9.09571 9.87088 9.11049 9.70595 9.14033C9.37306 9.20553 9.05802 9.3414 8.7821 9.53878C8.50618 9.73616 8.27579 9.99045 8.10649 10.2845C7.21928 11.6587 7.29176 14.2795 8.2731 16.2503C8.92371 17.5587 9.7726 18.2503 10.7339 18.2503C11.3543 18.221 11.9505 18.0007 12.4409 17.6195C12.5816 17.5199 12.7496 17.4665 12.922 17.4665C13.0943 17.4665 13.2624 17.5199 13.4031 17.6195C13.8852 17.9983 14.4734 18.2173 15.0858 18.2462C16.0397 18.2462 16.8894 17.5545 17.5442 16.2462C18.5297 14.2728 18.6105 11.6537 17.7266 10.2837C17.5572 9.98972 17.3268 9.73551 17.0509 9.53815C16.775 9.34078 16.46 9.20485 16.1271 9.13949C15.9622 9.10969 15.7949 9.09491 15.6273 9.09533C15.0835 9.10604 14.5465 9.21912 14.0445 9.42866C13.8829 9.49283 13.7263 9.56283 13.5788 9.63616L13.4955 9.68116L13.3639 9.75616C13.2656 9.81739 13.1554 9.85714 13.0407 9.87283L12.9249 9.88116L12.8291 9.87616C12.7361 9.86593 12.6454 9.8403 12.5608 9.80033L12.3476 9.68116C12.1686 9.58743 11.9845 9.50396 11.7961 9.43116C11.2941 9.22149 10.7571 9.1084 10.2133 9.09783L10.2058 9.09616Z" fill="#252929"/>
</g>
<defs>
<clipPath id="clip0_1513_2005">
<rect width="20" height="20" fill="white" transform="translate(0 0.762817)"/>
</clipPath>
</defs>
</svg>
