<svg width="32" height="32" viewBox="0 0 32 32" fill="none" xmlns="http://www.w3.org/2000/svg">
<path d="M8.99938 24.4333C13.6754 24.4333 17.466 20.6427 17.466 15.9667C17.466 11.2907 13.6754 7.5 8.99938 7.5C4.32337 7.5 0.532715 11.2907 0.532715 15.9667C0.532715 20.6427 4.32337 24.4333 8.99938 24.4333Z" fill="#FF6D7A"/>
<path d="M13.2599 23.2853C13.5945 23.09 13.9147 22.8724 14.218 22.6346C10.804 18.8561 10.8135 13.0931 14.2534 9.32796C13.9508 9.08816 13.6318 8.86896 13.2981 8.67216C13.0706 8.53796 12.7774 8.5865 12.6116 8.7921C9.2343 12.9776 9.2119 18.9516 12.5737 23.162C12.7386 23.3686 13.0316 23.4186 13.2599 23.2853Z" fill="#FE4F60"/>
<path d="M6.6088 12.8761C5.32146 12.9761 4.3588 14.1014 4.4588 15.3887C4.71413 18.6554 7.5228 20.4701 8.9828 20.4701C10.5915 20.4701 13.2601 18.5347 13.5068 15.3901C13.6075 14.1021 12.6455 12.9767 11.3581 12.8761C10.4679 12.806 9.65606 13.2457 9.20613 13.9493C9.1022 14.1119 8.86353 14.1119 8.7596 13.9493C8.31013 13.2461 7.49886 12.8066 6.6088 12.8761Z" fill="#EEF7FF"/>
<path d="M11.3666 19.4553C11.609 19.258 11.8442 19.0334 12.0645 18.7834C11.5178 16.9174 11.5325 14.9227 12.1092 13.0634C11.693 12.8821 11.2458 12.8316 10.8253 12.8948C10.6115 12.9269 10.4385 13.0868 10.3876 13.297C9.9191 15.2337 9.96123 17.2673 10.5162 19.1881C10.6225 19.5561 11.0695 19.6971 11.3666 19.4553Z" fill="#B5D5F5"/>
<path d="M21.567 25.9C27.0346 25.9 31.467 21.4676 31.467 16C31.467 10.5324 27.0346 6.09998 21.567 6.09998C16.0994 6.09998 11.667 10.5324 11.667 16C11.667 21.4676 16.0994 25.9 21.567 25.9Z" fill="#FFE773"/>
<path d="M24.9808 17.6532C26.0128 17.8732 26.4548 19.0985 25.8221 19.9432C23.6568 22.8372 19.4808 22.8385 17.3148 19.9432C16.6828 19.0985 17.1241 17.8732 18.1568 17.6532C20.4055 17.1739 22.7315 17.1739 24.9808 17.6532Z" fill="#FF6D7A"/>
<path d="M22.005 8.98439C18.4057 9.88872 15.445 12.8651 14.5519 16.4686C14.1403 18.1289 11.6957 17.8723 11.6683 16.1619C11.5794 10.6187 16.1109 6.04632 21.6655 6.10045C23.3933 6.11732 23.6808 8.56332 22.005 8.98439Z" fill="#FFF0A6"/>
<path d="M25.0005 17.6588C25.6754 17.8116 25.4921 18.8199 24.8049 18.7395C23.0349 18.5324 21.2392 18.6152 19.4902 18.9878C18.9471 19.1034 18.5677 19.497 18.4218 19.9672C18.2925 20.3838 17.7479 20.4822 17.4715 20.1447C17.4182 20.0796 17.366 20.0129 17.3148 19.9446C16.6828 19.0999 17.1241 17.8746 18.1568 17.6546C20.5193 17.1509 22.9716 17.1995 25.0005 17.6588Z" fill="#FE4F60"/>
<path d="M1.34865 19.5976C0.809114 18.4628 0.51458 17.189 0.53358 15.8445C0.59958 11.1612 4.51745 7.38291 9.21918 7.50278C10.0752 7.52458 10.1774 8.74618 9.33831 8.91718C4.84285 9.83344 1.73585 14.6462 2.68725 19.1372C2.86151 19.9597 1.70965 20.3568 1.34865 19.5976Z" fill="#FF8C95"/>
<path d="M21.5667 5.56714C17.0795 5.56714 13.2451 8.41461 11.7749 12.3974C10.7183 12.1773 9.66087 12.5709 8.99427 13.3576C8.4092 12.6669 7.51367 12.2719 6.57727 12.3451C4.999 12.4691 3.81513 13.8541 3.93833 15.4328C4.20527 18.8339 7.111 21.0044 8.99413 21.0044C9.36193 21.0044 9.78653 20.9138 10.2221 20.7424C10.4962 20.6345 10.6309 20.3249 10.5231 20.0508C10.4153 19.7767 10.1057 19.642 9.83153 19.7498C9.43687 19.9051 9.15827 19.9377 8.99413 19.9377C7.76133 19.9377 5.23473 18.3182 5.00173 15.3495C4.92427 14.3572 5.66853 13.4865 6.66073 13.4085C7.4618 13.3455 8.2154 13.8291 8.49367 14.5841C8.66453 15.0477 9.32327 15.0485 9.49447 14.5841C9.78187 13.8048 10.589 13.294 11.4555 13.4239C10.6541 16.5672 11.3513 19.9456 13.4431 22.5392C12.1309 23.4307 10.6064 23.9005 9 23.9005C4.62553 23.9005 1.06667 20.3416 1.06667 15.9671C1.06667 10.9652 5.6664 7.18587 10.5994 8.19494C10.8882 8.25401 11.1698 8.06794 11.2288 7.77934C11.2878 7.49074 11.1017 7.20894 10.8132 7.14994C5.2506 6.01187 0 10.2618 0 15.9671C0 20.9297 4.0374 24.9671 9 24.9671C10.8711 24.9671 12.645 24.4064 14.1604 23.3415C16.0521 25.2499 18.6736 26.4338 21.5667 26.4338C27.3196 26.4338 32 21.7534 32 16.0005C32 10.2475 27.3196 5.56714 21.5667 5.56714ZM21.5667 25.3671C16.4019 25.3671 12.2 21.1653 12.2 16.0005C12.2 10.8357 16.4019 6.63381 21.5667 6.63381C26.7315 6.63381 30.9333 10.8357 30.9333 16.0005C30.9333 21.1653 26.7315 25.3671 21.5667 25.3671Z" fill="black"/>
<path d="M17.47 14.417C17.6804 14.6228 18.018 14.6194 18.2242 14.4087L19.759 12.8394C19.9616 12.6321 19.9616 12.3008 19.759 12.0935L18.2242 10.5242C18.0183 10.3137 17.6807 10.3098 17.47 10.5158C17.2594 10.7218 17.2556 11.0594 17.4616 11.27L18.6317 12.4664L17.4616 13.6628C17.2556 13.8734 17.2594 14.211 17.47 14.417Z" fill="black"/>
<path d="M24.9118 14.4087C25.1172 14.6186 25.4548 14.6236 25.666 14.417C25.8766 14.2111 25.8804 13.8734 25.6744 13.6628L24.5043 12.4664L25.6744 11.27C25.8804 11.0594 25.8766 10.7217 25.666 10.5158C25.4554 10.3099 25.1178 10.3137 24.9118 10.5241L23.3771 12.0935C23.1744 12.3007 23.1744 12.632 23.3771 12.8393L24.9118 14.4087Z" fill="black"/>
<path d="M25.0911 17.1331C22.7531 16.6347 20.3823 16.6347 18.0443 17.1331C17.7563 17.1945 17.5725 17.4778 17.6339 17.7659C17.6954 18.054 17.9787 18.2377 18.2667 18.1763C20.457 17.7093 22.6783 17.7093 24.8687 18.1763C25.527 18.3166 25.7896 19.0967 25.3943 19.625C23.4433 22.2323 19.6954 22.2375 17.7412 19.6251C17.5648 19.3892 17.2305 19.3411 16.9947 19.5175C16.7588 19.6939 16.7106 20.0282 16.8871 20.2641C19.2647 23.4423 23.8672 23.4463 26.2484 20.2641C27.1155 19.1053 26.5007 17.4335 25.0911 17.1331Z" fill="black"/>
</svg>
