<svg width="34" height="34" viewBox="0 0 34 34" fill="none" xmlns="http://www.w3.org/2000/svg">
<path d="M5.85003 31.9445C5.59715 31.945 5.34918 31.8746 5.13433 31.7412C4.91948 31.6079 4.74636 31.4169 4.63466 31.19C4.52296 30.9631 4.47716 30.7095 4.50247 30.4579C4.52777 30.2062 4.62317 29.9668 4.77781 29.7667L4.89031 29.6389L8.47642 26.057C8.25697 25.8722 8.04725 25.675 7.85281 25.475C6.56416 24.2058 5.78793 22.5065 5.67225 20.7014C5.48638 19.4785 5.70986 18.2283 6.30791 17.1455C6.90596 16.0627 7.84508 15.2078 8.97919 14.7139L9.26808 14.5917L9.81253 14.3736L10.3389 14.6347C10.4611 14.6945 10.5861 14.7597 10.7195 14.8347C10.6881 13.7393 10.9871 12.6597 11.5777 11.7365C12.1682 10.8133 13.0229 10.0892 14.0306 9.65836L14.3264 9.53197L14.8709 9.31391L15.3972 9.57364C15.5209 9.63475 15.65 9.7028 15.7792 9.77503C15.747 8.67941 16.0456 7.5995 16.6359 6.67596C17.2263 5.75243 18.081 5.02807 19.0889 4.59725L19.3834 4.47086L19.9278 4.2528L20.4542 4.51392C21.515 5.0203 22.4436 5.76632 23.1667 6.69308C23.3436 6.45134 23.5391 6.22379 23.7514 6.01253C24.2908 5.43561 24.9419 4.97445 25.6651 4.65713C26.3884 4.3398 27.1686 4.17294 27.9584 4.16669C28.7513 4.17526 29.5369 4.32045 30.2806 4.59586L30.6014 4.71808L30.925 4.85697L31.382 5.06253L31.5875 5.51947C32.207 6.67687 32.4292 8.00563 32.2202 9.30161C32.0112 10.5976 31.3825 11.7891 30.4306 12.6931C30.2185 12.9054 29.991 13.1017 29.75 13.2806C30.5668 13.9132 31.242 14.7099 31.732 15.6195L31.925 15.9875L32.1848 16.5139L31.9667 17.0584C31.5751 18.1413 30.852 19.0733 29.9002 19.7216C28.9484 20.3699 27.8165 20.7016 26.6653 20.6695L26.7667 20.8556L26.8653 21.0486L27.125 21.575L26.907 22.1195C26.5157 23.2027 25.7927 24.1348 24.8408 24.7832C23.889 25.4316 22.7568 25.7631 21.6056 25.7306L21.707 25.9167L22.0653 26.6347L21.8472 27.1792C21.4416 28.2948 20.686 29.2493 19.6932 29.9002C18.7004 30.551 17.5238 30.8633 16.3389 30.7903C16.1431 30.7903 15.9417 30.7903 15.7389 30.7695C13.9341 30.6528 12.2352 29.8767 10.9653 28.5889C10.7598 28.3875 10.5653 28.1722 10.3848 27.9653L6.80142 31.5514C6.67652 31.6763 6.52818 31.7754 6.36492 31.8428C6.20165 31.9103 6.02668 31.9448 5.85003 31.9445V31.9445ZM15.0861 24.557C14.7232 24.5647 14.3655 24.6456 14.0345 24.7947C13.7035 24.9439 13.406 25.1583 13.1597 25.425L12.8709 25.6722L12.5931 25.9222L12.325 26.1764L12.4709 26.3486C12.5806 26.4736 12.6959 26.5945 12.8111 26.707C13.6357 27.5502 14.7415 28.0608 15.9181 28.1417C16.0722 28.1514 16.2236 28.157 16.3667 28.157C16.9186 28.2112 17.4746 28.1059 17.9684 27.8536C18.4623 27.6012 18.8734 27.2124 19.1528 26.7334C18.7554 26.0808 18.199 25.5397 17.5357 25.1605C16.8723 24.7814 16.1237 24.5766 15.3597 24.5653C15.2611 24.5597 15.1723 24.557 15.0848 24.557H15.0861ZM9.70975 17.2917L9.51669 17.4125C9.04098 17.764 8.67443 18.243 8.45938 18.794C8.24433 19.345 8.18957 19.9456 8.30142 20.5264C8.38233 21.703 8.89295 22.8088 9.73614 23.6334C9.87954 23.7797 10.0302 23.9188 10.1875 24.05L10.3486 24.1806L11.625 22.907C11.8159 22.4132 11.9052 21.886 11.8875 21.357L11.8764 21.0792C11.8656 20.4143 11.7085 19.7598 11.4164 19.1624C11.1243 18.565 10.7043 18.0392 10.1861 17.6222L9.95419 17.4514L9.70975 17.2917ZM20.1195 19.4959C19.5742 19.4768 19.0401 19.6537 18.6139 19.9945L18.4292 20.1417L18.2389 20.3125L17.3945 21.1209C17.5652 21.3355 17.7509 21.5379 17.95 21.7264C18.7659 22.5232 19.8387 23.0038 20.9764 23.082C21.1306 23.0917 21.282 23.0972 21.425 23.0972C21.977 23.1513 22.5328 23.046 23.0267 22.7936C23.5205 22.5413 23.9316 22.1526 24.2111 21.6736C23.8139 21.0208 23.2576 20.4794 22.5942 20.1C21.9309 19.7206 21.1822 19.5156 20.4181 19.5042C20.3125 19.5042 20.2125 19.4945 20.1195 19.4945V19.4959ZM14.7681 12.2334L14.575 12.3528C14.0993 12.7043 13.7328 13.1832 13.5177 13.7343C13.3027 14.2853 13.2479 14.8859 13.3597 15.4667C13.4415 16.6435 13.9519 17.7494 14.7945 18.575C14.9673 18.7514 15.15 18.9179 15.3417 19.0736L15.4056 19.1222L16.6028 17.9306C16.8406 17.4289 16.958 16.8787 16.9459 16.3236L16.9347 16.0236C16.9242 15.359 16.7673 14.7048 16.4755 14.1076C16.1836 13.5104 15.7638 12.9848 15.2459 12.5681L15.0139 12.3959L14.7681 12.2334ZM25.2709 14.4445C24.81 14.4412 24.3534 14.5324 23.9292 14.7125L23.8139 14.7764L23.7292 14.8417L23.05 15.4861L22.45 16.0722C22.5989 16.2547 22.7579 16.4286 22.9264 16.5931C23.7519 17.4356 24.858 17.9457 26.0347 18.0264C26.1889 18.0361 26.3403 18.0417 26.4834 18.0417C27.0351 18.0957 27.5907 17.9903 28.0843 17.7379C28.5779 17.4856 28.9888 17.0969 29.2681 16.6181C28.8711 15.9641 28.3145 15.4216 27.6506 15.0415C26.9867 14.6613 26.2372 14.4559 25.4723 14.4445C25.4056 14.4445 25.3334 14.4445 25.2667 14.4445H25.2709ZM19.8292 7.17225L19.6361 7.29308C19.1604 7.64459 18.7939 8.12352 18.5788 8.67453C18.3638 9.22554 18.309 9.82615 18.4209 10.407C18.5024 11.5834 19.0129 12.689 19.8556 13.5139C20.0623 13.7248 20.2842 13.9202 20.5195 14.0986C20.9297 13.7407 21.3054 13.3449 21.6417 12.9167C21.9734 12.3237 22.0994 11.6375 22 10.9653C21.9889 10.3003 21.8316 9.64583 21.5393 9.0484C21.2469 8.45097 20.8267 7.92519 20.3084 7.50836L20.0764 7.33753L19.832 7.17364L19.8292 7.17225ZM27.9722 6.79586C27.5258 6.80399 27.0858 6.90387 26.6796 7.08928C26.2735 7.27469 25.9098 7.54168 25.6111 7.87364C25.2708 8.20731 25.0106 8.6138 24.85 9.06253C24.5848 9.89044 24.5785 10.7796 24.832 11.6111C25.2603 11.7305 25.7026 11.7926 26.1473 11.7959C26.5674 11.7994 26.985 11.7308 27.382 11.5931C27.8313 11.4328 28.2383 11.1726 28.5723 10.832C29.0207 10.4387 29.3496 9.92726 29.5215 9.35608C29.6934 8.78489 29.7014 8.1769 29.5445 7.60142L29.4709 7.32364L29.3834 7.06253L29.1209 6.97503C28.7489 6.85928 28.3618 6.79891 27.9722 6.79586V6.79586ZM7.27781 12.5C6.93741 12.4999 6.60889 12.3749 6.35465 12.1485C6.1004 11.9222 5.93813 11.6103 5.89864 11.2722L5.88892 11.1111V6.40975L4.07503 8.14725L3.94447 8.25836C3.69999 8.43898 3.40399 8.53635 3.10003 8.53614C2.73802 8.53766 2.38952 8.39876 2.12781 8.14864C1.89111 7.92637 1.74747 7.62265 1.72582 7.29869C1.70417 6.97472 1.80613 6.65458 2.01114 6.4028L2.12642 6.27919L7.22364 1.38892L12.4167 6.26947L12.5334 6.39308C12.7236 6.61889 12.8298 6.9036 12.8338 7.19883C12.8379 7.49406 12.7396 7.78159 12.5556 8.01253L12.4417 8.13753L12.3125 8.24864C12.0661 8.4346 11.7657 8.53505 11.457 8.53475C11.1575 8.53627 10.8655 8.44184 10.6236 8.2653L10.4917 8.15697L8.66669 6.44447V11.1111C8.66669 11.4795 8.52037 11.8328 8.2599 12.0932C7.99943 12.3537 7.64616 12.5 7.27781 12.5Z" fill="white"/>
</svg>
