<svg width="32" height="32" viewBox="0 0 32 32" fill="none" xmlns="http://www.w3.org/2000/svg">
<g clip-path="url(#clip0_3323_718)">
<path d="M19.4001 26.6L18.7548 30.5713C18.6708 31.0873 18.2254 31.4666 17.7021 31.4666H14.2981C13.7748 31.4666 13.3294 31.0873 13.2454 30.5713L12.6001 26.6H19.4001Z" fill="#FFBD7B"/>
<path d="M14.6734 30.8511C14.8244 31.1288 14.6142 31.4666 14.2981 31.4666C13.7748 31.4666 13.3294 31.0873 13.2454 30.5713L12.6001 26.6H13.9334C14.633 30.9047 14.5736 30.6676 14.6734 30.8511Z" fill="#FFD3A6"/>
<path d="M16.0006 0.532904L16 0.532837C10.3052 0.532904 5.66324 5.20364 5.68464 10.8889C5.69798 14.4836 7.55064 17.6449 10.35 19.4809C11.3288 20.123 12.1241 21.0281 12.6052 22.0915C12.6906 22.2804 12.8811 22.3996 13.0884 22.3996H18.9127C19.1204 22.3996 19.3109 22.2799 19.3963 22.0906C19.872 21.0366 20.6522 20.132 21.6233 19.4996C24.4486 17.659 26.3173 14.4723 26.3173 10.8496C26.3173 5.15157 21.698 0.532904 16.0006 0.532904Z" fill="#FF6D7A"/>
<path d="M15.9998 0.532904C26.1944 8.57557 16.7604 18.7702 16.2618 22.1996C16.2524 22.2669 16.2431 22.3336 16.2344 22.3996H15.7651C15.7564 22.3336 15.7471 22.2669 15.7378 22.1996C15.2391 18.7702 5.80578 8.57617 15.9991 0.532837L15.9998 0.532904Z" fill="#CBE3FA"/>
<path d="M20.7281 1.67764C21.2695 1.95737 20.9908 2.77717 20.3898 2.6761C19.7269 2.56464 19.0505 2.5179 18.3727 2.5369C18.2175 2.54124 18.0678 2.47824 17.9643 2.36257C17.4102 1.7431 16.7595 1.13217 16 0.532837C17.7042 0.532837 19.3117 0.94597 20.7281 1.67764Z" fill="#FF8C95"/>
<path d="M16 0.532837C14.36 1.82684 13.228 3.1769 12.4853 4.54557C12.45 4.6109 12.402 4.6669 12.344 4.7129C8.62651 7.60504 7.51991 12.749 8.92578 16.7998C9.12158 17.3641 8.39524 17.7761 8.01184 17.3182C6.41671 15.413 5.69338 13.2528 5.68464 10.8889C5.66338 5.2081 10.3022 0.532837 16 0.532837Z" fill="#FF8C95"/>
<path d="M17.5948 2.58837C16.0848 2.7459 14.6699 3.23244 13.4228 3.97424C13.1783 4.1197 12.9044 3.83184 13.0652 3.5971C13.7792 2.55397 14.7392 1.52704 15.999 0.532837C16.0059 0.53337 16.9244 1.24597 17.7614 2.14124C17.9118 2.30204 17.8138 2.56557 17.5948 2.58837Z" fill="#EEF7FF"/>
<path d="M16.0124 0.000136322C15.8899 -0.00273035 15.7631 0.0396697 15.6605 0.122136C12.3625 2.7718 10.4771 6.04274 10.7841 10.2118C11.0329 13.591 12.6833 16.8268 13.7755 18.9679C13.8697 19.1527 14.0569 19.2591 14.251 19.2591C14.6427 19.2591 14.9086 18.8419 14.7257 18.4833C12.5277 14.1739 8.85887 6.98027 16.1842 1.069C21.4939 1.16754 25.7832 5.51687 25.7832 10.8497C25.7832 14.1709 24.1192 17.2375 21.3319 19.0529C20.2757 19.7408 19.427 20.7306 18.9121 21.8667H16.8871C17.8801 18.6229 24.3643 10.6418 19.3999 3.3332C19.2345 3.08954 18.9027 3.02614 18.6591 3.19167C18.4154 3.35714 18.3521 3.68887 18.5175 3.93254C23.2095 10.8401 16.5311 18.5977 15.784 21.8667H13.0879C12.5734 20.7355 11.7157 19.7399 10.6419 19.0356C7.8836 17.2265 6.22947 14.1803 6.21713 10.8873C6.20273 7.0574 8.45647 3.54747 11.9587 1.94527C12.2266 1.82274 12.3444 1.50627 12.2219 1.2384C12.0994 0.970536 11.7829 0.852803 11.515 0.97527C7.63273 2.75134 5.13453 6.6436 5.15047 10.8913C5.1642 14.5434 6.9984 17.9215 10.0569 19.9275C11.0225 20.5608 11.7785 21.4703 12.1968 22.4963L12.0835 26.0667H12.0001C11.7056 26.0667 11.4668 26.3055 11.4668 26.6C11.4668 26.8945 11.7056 27.1333 12.0001 27.1333H18.7731L18.2285 30.4855C18.1864 30.745 17.965 30.9333 17.7021 30.9333H14.2982C14.0353 30.9333 13.8139 30.745 13.7718 30.4855L13.6412 29.6814C13.594 29.3907 13.32 29.1933 13.0293 29.2405C12.7385 29.2877 12.5411 29.5617 12.5883 29.8524L12.7189 30.6565C12.8454 31.4349 13.5096 31.9999 14.2982 31.9999H17.7021C18.4908 31.9999 19.1549 31.4349 19.2814 30.6565L19.8538 27.1333H20.0001C20.2947 27.1333 20.5335 26.8945 20.5335 26.6C20.5335 26.3055 20.2947 26.0667 20.0001 26.0667H19.9168L19.8621 24.3419C19.8527 24.0475 19.606 23.8156 19.3121 23.8257C19.0177 23.8351 18.7866 24.0813 18.7959 24.3757L18.8496 26.0667H13.1507L13.2501 22.9333H19.2668C19.4875 22.9333 19.6853 22.7974 19.7646 22.5915C20.1765 21.5205 20.9399 20.5812 21.9141 19.9467C25.0047 17.9337 26.8499 14.533 26.8499 10.8497C26.8499 4.87127 21.9893 0.00680299 16.0124 0.000136322Z" fill="black"/>
</g>
<defs>
<clipPath id="clip0_3323_718">
<rect width="32" height="32" fill="white"/>
</clipPath>
</defs>
</svg>
