<svg width="38" height="25" viewBox="0 0 38 25" fill="none" xmlns="http://www.w3.org/2000/svg">
<path opacity="0.07" d="M35.0005 0.515153H3.0005C2.60452 0.507825 2.21113 0.580416 1.84384 0.728586C1.47655 0.876756 1.14291 1.09746 0.862863 1.37751C0.582814 1.65756 0.362108 1.9912 0.213938 2.35849C0.065768 2.72578 -0.00682307 3.11917 0.000504276 3.51515V21.5152C0.00287837 22.3101 0.319711 23.0718 0.881807 23.6339C1.4439 24.1959 2.20559 24.5128 3.0005 24.5152H35.0005C35.3965 24.5225 35.7899 24.4499 36.1572 24.3017C36.5245 24.1535 36.8581 23.9328 37.1381 23.6528C37.4182 23.3727 37.6389 23.0391 37.7871 22.6718C37.9352 22.3045 38.0078 21.9111 38.0005 21.5152V3.51515C37.9981 2.72023 37.6813 1.95855 37.1192 1.39645C36.5571 0.83436 35.7954 0.517527 35.0005 0.515153V0.515153Z" fill="black"/>
<path d="M35.0005 1.51514C35.5304 1.51672 36.0382 1.72794 36.413 2.10267C36.7877 2.4774 36.9989 2.98519 37.0005 3.51514V21.5151C36.9989 22.0451 36.7877 22.5529 36.413 22.9276C36.0382 23.3023 35.5304 23.5136 35.0005 23.5151H3.00049C2.47054 23.5136 1.96275 23.3023 1.58802 22.9276C1.21329 22.5529 1.00207 22.0451 1.00049 21.5151V3.51514C1.00207 2.98519 1.21329 2.4774 1.58802 2.10267C1.96275 1.72794 2.47054 1.51672 3.00049 1.51514H35.0005Z" fill="white"/>
<path d="M15.0005 19.5151C18.8665 19.5151 22.0005 16.3811 22.0005 12.5151C22.0005 8.64914 18.8665 5.51514 15.0005 5.51514C11.1345 5.51514 8.00049 8.64914 8.00049 12.5151C8.00049 16.3811 11.1345 19.5151 15.0005 19.5151Z" fill="#EB001B"/>
<path d="M23.0005 19.5151C26.8665 19.5151 30.0005 16.3811 30.0005 12.5151C30.0005 8.64914 26.8665 5.51514 23.0005 5.51514C19.1345 5.51514 16.0005 8.64914 16.0005 12.5151C16.0005 16.3811 19.1345 19.5151 23.0005 19.5151Z" fill="#F79E1B"/>
<path d="M22.0005 12.5149C22.0081 11.3913 21.7383 10.2832 21.215 9.28889C20.6917 8.29457 19.931 7.44479 19.0005 6.81494C18.0865 7.46127 17.3383 8.31456 16.8169 9.30516C16.2955 10.2958 16.0158 11.3956 16.0005 12.5149C16.0046 13.6364 16.2794 14.7403 16.8018 15.7327C17.3241 16.7251 18.0784 17.5767 19.0005 18.2149C19.931 17.5851 20.6917 16.7353 21.215 15.741C21.7383 14.7467 22.0081 13.6385 22.0005 12.5149V12.5149Z" fill="#FF5F00"/>
</svg>
