<svg width="38" height="25" viewBox="0 0 38 25" fill="none" xmlns="http://www.w3.org/2000/svg">
<path opacity="0.07" d="M34.9975 0.515153H2.99745C2.60147 0.507825 2.20808 0.580416 1.84079 0.728586C1.4735 0.876756 1.13986 1.09746 0.859812 1.37751C0.579763 1.65756 0.359056 1.9912 0.210886 2.35849C0.0627163 2.72578 -0.00987482 3.11917 -0.00254748 3.51515V21.5152C-0.000173392 22.3101 0.316659 23.0718 0.878755 23.6339C1.44085 24.1959 2.20253 24.5128 2.99745 24.5152H34.9975C35.3934 24.5225 35.7868 24.4499 36.1541 24.3017C36.5214 24.1535 36.855 23.9328 37.1351 23.6528C37.4151 23.3727 37.6358 23.0391 37.784 22.6718C37.9322 22.3045 38.0048 21.9111 37.9975 21.5152V3.51515C37.9951 2.72023 37.6782 1.95855 37.1161 1.39645C36.5541 0.83436 35.7924 0.517527 34.9975 0.515153V0.515153Z" fill="black"/>
<path d="M34.9974 1.51514C35.5274 1.51672 36.0352 1.72794 36.4099 2.10267C36.7846 2.4774 36.9959 2.98519 36.9974 3.51514V21.5151C36.9959 22.0451 36.7846 22.5529 36.4099 22.9276C36.0352 23.3023 35.5274 23.5136 34.9974 23.5151H2.99744C2.46749 23.5136 1.9597 23.3023 1.58497 22.9276C1.21024 22.5529 0.999019 22.0451 0.997437 21.5151V3.51514C0.999019 2.98519 1.21024 2.4774 1.58497 2.10267C1.9597 1.72794 2.46749 1.51672 2.99744 1.51514H34.9974Z" fill="white"/>
<path d="M28.2974 10.6151H27.9974C27.544 11.571 27.2082 12.5783 26.9974 13.6151H28.8974C28.7669 12.6024 28.5665 11.6 28.2974 10.6151V10.6151ZM31.1974 16.5151H29.4974C29.3974 16.5151 29.3974 16.5151 29.2974 16.4151L29.0974 15.5151L28.9974 15.3151H26.5974C26.4974 15.3151 26.3974 15.3151 26.3974 15.5151L26.0974 16.4151C26.0974 16.4416 26.0869 16.467 26.0681 16.4858C26.0494 16.5046 26.024 16.5151 25.9974 16.5151H23.8974L24.0974 16.0151L26.9974 9.21509C26.9974 8.71509 27.2974 8.51509 27.7974 8.51509H29.2974C29.3974 8.51509 29.4974 8.51509 29.4974 8.71509L30.8974 15.2151C31.0122 15.5714 31.0795 15.9412 31.0974 16.3151C31.1974 16.4151 31.1974 16.4151 31.1974 16.5151V16.5151ZM17.7974 16.2151L18.1974 14.4151C18.2733 14.4256 18.3435 14.4607 18.3974 14.5151C19.0473 14.839 19.774 14.9774 20.4974 14.9151C20.7417 14.8953 20.9796 14.8274 21.1974 14.7151C21.6974 14.5151 21.6974 14.0151 21.2974 13.6151C21.0454 13.4261 20.7777 13.2589 20.4974 13.1151C20.096 12.9415 19.7247 12.7052 19.3974 12.4151C19.1677 12.2306 18.9806 11.9986 18.849 11.735C18.7174 11.4715 18.6443 11.1825 18.6348 10.8881C18.6253 10.5936 18.6796 10.3006 18.794 10.0291C18.9083 9.75756 19.0801 9.514 19.2974 9.31509C19.8974 8.91509 20.1974 8.51509 20.9974 8.51509C22.035 8.46025 23.0755 8.52738 24.0974 8.71509H24.1974C24.1117 9.29191 23.9779 9.86056 23.7974 10.4151C23.3267 10.1895 22.818 10.0538 22.2974 10.0151C21.994 9.99881 21.6899 10.0326 21.3974 10.1151C21.3201 10.1166 21.244 10.1353 21.1748 10.1699C21.1056 10.2045 21.045 10.2541 20.9974 10.3151C20.95 10.3602 20.9122 10.4145 20.8864 10.4747C20.8606 10.5348 20.8473 10.5996 20.8473 10.6651C20.8473 10.7306 20.8606 10.7953 20.8864 10.8555C20.9122 10.9157 20.95 10.97 20.9974 11.0151L21.4974 11.4151C21.8753 11.5938 22.2426 11.7942 22.5974 12.0151C22.8679 12.1593 23.1054 12.3583 23.2948 12.5993C23.4842 12.8403 23.6213 13.1182 23.6974 13.4151C23.8023 13.8445 23.7721 14.2958 23.6111 14.7074C23.45 15.119 23.1659 15.4709 22.7974 15.7151C22.6214 15.9105 22.4051 16.0654 22.1634 16.169C21.9217 16.2726 21.6603 16.3224 21.3974 16.3151C20.2604 16.4148 19.1149 16.3474 17.9974 16.1151C17.8974 16.3151 17.8974 16.3151 17.7974 16.2151V16.2151ZM14.2974 16.5151C14.3219 16.1747 14.3891 15.8387 14.4974 15.5151C14.9974 13.3151 15.4974 11.0151 15.8974 8.81509C15.9974 8.61509 15.9974 8.51509 16.1974 8.51509H17.9974C17.8224 9.59369 17.5888 10.6619 17.2974 11.7151C16.9974 13.2151 16.6974 14.7151 16.2974 16.2151C16.2974 16.4151 16.1974 16.4151 15.9974 16.4151L14.2974 16.5151ZM4.99744 8.71509C4.99744 8.61509 5.19744 8.51509 5.29744 8.51509H8.69744C8.93266 8.50506 9.16355 8.58056 9.3474 8.72764C9.53124 8.87471 9.65559 9.0834 9.69744 9.31509L10.5974 13.7151C10.5974 13.8151 10.5974 13.8151 10.6974 13.9151C10.6974 13.8886 10.708 13.8631 10.7267 13.8444C10.7455 13.8256 10.7709 13.8151 10.7974 13.8151L12.8974 8.71509C12.7974 8.61509 12.8974 8.51509 12.9974 8.51509H15.0974C15.0974 8.61509 15.0974 8.61509 14.9974 8.71509L11.8974 16.0151C11.7974 16.2151 11.7974 16.3151 11.6974 16.4151C11.5974 16.5151 11.3974 16.4151 11.1974 16.4151H9.69744C9.59744 16.4151 9.49744 16.4151 9.49744 16.2151L7.89744 10.0151C7.65709 9.73752 7.34609 9.53019 6.99744 9.41509C6.39232 9.15535 5.75202 8.98685 5.09744 8.91509L4.99744 8.71509Z" fill="#142688"/>
</svg>
