<svg width="38" height="25" viewBox="0 0 38 25" fill="none" xmlns="http://www.w3.org/2000/svg">
<path opacity="0.07" d="M34.9995 0.515153H2.99953C2.60355 0.507825 2.21015 0.580416 1.84287 0.728586C1.47558 0.876756 1.14194 1.09746 0.861887 1.37751C0.581838 1.65756 0.361131 1.9912 0.212961 2.35849C0.0647915 2.72578 -0.00779963 3.11917 -0.000472287 3.51515V21.5152C0.0019018 22.3101 0.318735 23.0718 0.88083 23.6339C1.44293 24.1959 2.20461 24.5128 2.99953 24.5152H34.9995C35.3955 24.5225 35.7889 24.4499 36.1562 24.3017C36.5235 24.1535 36.8571 23.9328 37.1372 23.6528C37.4172 23.3727 37.6379 23.0391 37.7861 22.6718C37.9343 22.3045 38.0069 21.9111 37.9995 21.5152V3.51515C37.9972 2.72023 37.6803 1.95855 37.1182 1.39645C36.5561 0.83436 35.7944 0.517527 34.9995 0.515153V0.515153Z" fill="black"/>
<path d="M34.9995 1.51514C35.5295 1.51672 36.0372 1.72794 36.412 2.10267C36.7867 2.4774 36.9979 2.98519 36.9995 3.51514V21.5151C36.9979 22.0451 36.7867 22.5529 36.412 22.9276C36.0372 23.3023 35.5295 23.5136 34.9995 23.5151H2.99951C2.46957 23.5136 1.96178 23.3023 1.58705 22.9276C1.21232 22.5529 1.00109 22.0451 0.999512 21.5151V3.51514C1.00109 2.98519 1.21232 2.4774 1.58705 2.10267C1.96178 1.72794 2.46957 1.51672 2.99951 1.51514H34.9995Z" fill="#006FCF"/>
<path d="M8.97051 10.7831L9.74451 12.6591H8.19951L8.97051 10.7831ZM25.0455 10.8611H22.0685V11.6881H24.9995V12.9271H22.0745V13.8491H25.0515V14.5881L27.1285 12.3431L25.0515 10.0031L25.0455 10.8611V10.8611ZM10.9825 8.52114H14.9775L15.8645 10.4561L16.6865 8.51514H27.0565L28.1345 9.70514L29.2495 8.51514H34.0125L30.4935 12.3671L33.9765 16.1951H29.1425L28.0645 15.0051L26.9395 16.1951H10.0295L9.53551 15.0051H8.40551L7.90551 16.1951H3.99951L7.28551 8.51514H10.7155L10.9825 8.52114ZM19.6455 9.59914H17.4065L15.9065 13.1351L14.2815 9.59914H12.0595V14.4091L9.99951 9.59914H8.00651L5.62451 15.1151H7.17951L7.67351 13.9251H10.2735L10.7675 15.1151H13.4875V11.1761L15.2345 15.1151H16.4245L18.1645 11.1861V15.1151H19.6225L19.6465 9.59514L19.6455 9.59914ZM28.9855 12.3671L31.5165 9.59914H29.6945L28.0945 11.3251L26.5455 9.59914H20.6515V15.1151H26.4615L28.0755 13.3771L29.6235 15.1151H31.4995L28.9875 12.3651L28.9855 12.3671Z" fill="white"/>
</svg>
