<svg width="20" height="21" viewBox="0 0 20 21" fill="none" xmlns="http://www.w3.org/2000/svg">
<path fill-rule="evenodd" clip-rule="evenodd" d="M10 0.762817C15.5228 0.762817 20 5.23997 20 10.7628C20 16.2857 15.5228 20.7628 10 20.7628C4.47715 20.7628 0 16.2857 0 10.7628C0 5.23997 4.47715 0.762817 10 0.762817ZM10 2.42948C5.39763 2.42948 1.66667 6.16044 1.66667 10.7628C1.66667 15.3652 5.39763 19.0962 10 19.0962C14.6024 19.0962 18.3333 15.3652 18.3333 10.7628C18.3333 6.16044 14.6024 2.42948 10 2.42948ZM7.20311 7.34615C7.65763 7.34615 8.06232 7.41315 8.4169 7.54778C8.77157 7.68245 9.06177 7.85372 9.28713 8.06242C9.51098 8.26971 9.68101 8.49109 9.79649 8.72661C9.91377 8.9658 9.97316 9.18269 9.97316 9.37918C9.97316 9.60492 9.89479 9.80247 9.74152 9.96234C9.58759 10.1229 9.39741 10.2056 9.18075 10.2056C9.05783 10.2056 8.93934 10.174 8.82771 10.1118C8.71656 10.0498 8.62401 9.96326 8.5446 9.84508L8.36772 9.55345L8.25114 9.37719C8.21462 9.32455 8.18044 9.27804 8.14867 9.23772C8.05306 9.11641 7.92196 9.01292 7.75415 8.92739C7.59024 8.84385 7.37408 8.80103 7.10621 8.80103C6.82852 8.80103 6.58318 8.85275 6.36878 8.95572C6.15498 9.0584 5.97255 9.20711 5.82001 9.40333C5.66545 9.60216 5.54623 9.84815 5.46273 10.1422C5.37779 10.4412 5.33516 10.7741 5.33516 11.1409C5.33516 11.9329 5.49814 12.5347 5.81997 12.9484C6.13472 13.3529 6.57034 13.5531 7.14144 13.5531C7.42634 13.5531 7.69281 13.5124 7.94141 13.4311C8.06826 13.3897 8.19621 13.3393 8.32481 13.2801L8.51815 13.1849L8.63083 13.122V12.252L7.78305 12.2519L7.63756 12.2467C7.43424 12.2319 7.27029 12.1854 7.14459 12.1043C6.96734 11.9901 6.87759 11.7973 6.87759 11.5463C6.87759 11.3418 6.94812 11.1661 7.0861 11.0298C7.17434 10.9426 7.28211 10.8833 7.40985 10.8518L7.50941 10.8334L7.63035 10.8261L9.11895 10.8262L9.25483 10.8297C9.39296 10.8369 9.51538 10.8554 9.62259 10.8854C9.79 10.9324 9.92667 11.0376 10.027 11.1953C10.0901 11.2945 10.1318 11.4186 10.1536 11.57L10.1662 11.6886L10.1714 11.8407V13.2012L10.1681 13.3342C10.1614 13.4697 10.1441 13.5845 10.1154 13.6801C10.0747 13.8161 10 13.9386 9.89331 14.0456C9.79607 14.1431 9.67405 14.2354 9.52678 14.3231C9.12435 14.5618 8.73569 14.7364 8.36053 14.8467C7.98359 14.9575 7.5742 15.0128 7.13264 15.0128C6.61484 15.0128 6.14102 14.9251 5.71212 14.7492C5.28044 14.5723 4.91124 14.3144 4.60613 13.9767C4.30211 13.6401 4.06912 13.2332 3.90736 12.7571C3.74677 12.2845 3.66667 11.7585 3.66667 11.1795C3.66667 10.6107 3.74439 10.0885 3.90014 9.61333C4.05755 9.13308 4.29023 8.72362 4.59791 8.38646C4.90606 8.04879 5.28115 7.79033 5.72157 7.61189C6.15927 7.43456 6.65334 7.34615 7.20311 7.34615ZM12.2052 7.34615L15.2243 7.34627L15.3547 7.35339C15.5392 7.37419 15.6882 7.44045 15.7966 7.55316C15.9279 7.6898 15.9941 7.86873 15.9941 8.0804C15.9941 8.29526 15.928 8.47578 15.7966 8.61256C15.7069 8.70582 15.5898 8.76715 15.4454 8.79753L15.332 8.81453L15.2198 8.81956L12.8725 8.81948V10.3103L14.8155 10.3105L14.9366 10.3173C15.115 10.3376 15.2598 10.4023 15.3657 10.5122C15.4945 10.6458 15.5592 10.8231 15.5592 11.0347C15.5592 11.2472 15.4931 11.4246 15.3617 11.5567C15.2768 11.6421 15.1686 11.6995 15.0368 11.7297L14.9335 11.7473L14.8064 11.7542L12.8725 11.7545L12.8717 13.9559L12.8664 14.1066C12.8473 14.3712 12.7773 14.5801 12.6533 14.7317C12.5016 14.917 12.3005 15.0128 12.0631 15.0128C11.8225 15.0128 11.6197 14.916 11.4679 14.7285C11.3654 14.6017 11.2998 14.4368 11.2695 14.2325L11.2555 14.1052L11.25 13.9498L11.2501 8.40799L11.2556 8.25152C11.2671 8.09049 11.2967 7.95137 11.3452 7.83358C11.4152 7.66349 11.5287 7.5356 11.6815 7.45604C11.7618 7.41425 11.8525 7.38458 11.9553 7.36657L12.0622 7.35244L12.2052 7.34615Z" fill="#252929"/>
</svg>
