<svg width="34" height="34" viewBox="0 0 34 34" fill="none" xmlns="http://www.w3.org/2000/svg">
<g clip-path="url(#clip0_1384_9653)">
<path fill-rule="evenodd" clip-rule="evenodd" d="M29.3407 0.566907C29.2765 0.514986 29.2157 0.465806 29.1665 0.416626C28.7499 0.208293 28.3332 0.208293 28.1249 0.416626C27.0832 0.833293 17.7082 4.99996 15.2082 9.99996C13.7499 12.2916 13.5415 14.5833 14.3749 16.6666C14.3749 16.7708 14.427 16.8229 14.479 16.875C14.5311 16.927 14.5832 16.9791 14.5832 17.0833C14.7915 17.5 15.2082 17.7083 15.6249 17.7083C16.4582 17.7083 16.8749 17.0833 16.8749 16.25L16.6665 15.8333C16.4582 14.375 16.4582 12.9166 17.4999 10.8333C18.9582 7.91663 24.3749 4.79163 27.4999 3.33329C28.1249 6.87496 28.9582 13.125 27.4999 15.8333C25.8332 18.9583 23.7499 19.5833 21.8749 19.1666H21.6665C21.2499 19.1666 20.8332 19.375 20.6249 19.7916C20.6249 19.7916 20.4165 20 20.4165 20.2083V20.4166C20.4165 21.0416 20.8332 21.6666 21.4582 21.6666H21.6665C21.6665 21.6666 22.0832 21.6666 22.4999 21.875C25.8332 22.2916 28.5415 20.4166 30.4165 16.875C32.2915 12.2916 30.2082 2.29163 29.7915 1.24996C29.7915 0.931653 29.5484 0.73493 29.3407 0.566907ZM23.3332 8.12496C23.7498 7.70829 24.7915 7.70829 25.2082 8.12496C25.6248 8.74996 25.6248 9.58329 25.2082 10.2083C23.3332 12.0833 21.4582 15.4166 19.9998 18.75C19.7658 19.1009 19.5319 19.5176 19.261 20C19.0495 20.3766 18.8155 20.7932 18.5415 21.25C16.8624 25.4477 15.7246 29.6454 15.2372 31.4436C15.1199 31.8765 15.0403 32.1704 14.9998 32.2916C14.9998 32.5 14.7915 32.7083 14.7915 32.7083C14.7915 32.9166 14.7915 33.125 14.5832 33.125C14.4634 33.2448 14.4124 33.2957 14.3512 33.3173C14.3059 33.3333 14.255 33.3333 14.1665 33.3333H13.9582H13.7498H13.5415C13.4373 33.3333 13.3852 33.2812 13.3332 33.2291C13.2811 33.177 13.229 33.125 13.1248 33.125C13.0453 33.0454 12.9657 32.9962 12.8977 32.9542C12.7877 32.8862 12.7082 32.837 12.7082 32.7083C12.5884 32.5885 12.5374 32.5376 12.5158 32.4763C12.4998 32.4311 12.4998 32.3802 12.4998 32.2916C12.4998 32.0833 12.2915 31.0416 11.8748 29.375C10.4165 24.375 6.87483 14.1666 2.70816 9.99996C2.08316 9.58329 2.08316 8.74996 2.70816 8.12496C3.12483 7.70829 4.16649 7.70829 4.58316 8.12496C8.33316 11.875 11.4582 19.375 13.3332 25C13.5415 25.8333 13.7498 26.4583 13.9582 27.0833C14.5832 25 15.4165 22.2916 16.4582 19.5833L16.4582 19.5832C16.8748 18.7499 17.2915 17.9166 17.7082 16.875C19.3748 13.5416 21.2498 10.2083 23.3332 8.12496Z" fill="white"/>
</g>
<defs>
<clipPath id="clip0_1384_9653">
<rect width="33.3333" height="33.3333" fill="white"/>
</clipPath>
</defs>
</svg>
